%TF.GenerationSoftware,KiCad,Pcbnew,9.0.1*%
%TF.CreationDate,2025-05-08T13:19:39+05:30*%
%TF.ProjectId,1. LED Torch,312e204c-4544-4205-946f-7263682e6b69,1*%
%TF.SameCoordinates,Original*%
%TF.FileFunction,Legend,Bot*%
%TF.FilePolarity,Positive*%
%FSLAX46Y46*%
G04 Gerber Fmt 4.6, Leading zero omitted, Abs format (unit mm)*
G04 Created by KiCad (PCBNEW 9.0.1) date 2025-05-08 13:19:39*
%MOMM*%
%LPD*%
G01*
G04 APERTURE LIST*
%ADD10C,0.100000*%
%ADD11C,0.010000*%
G04 APERTURE END LIST*
D10*
X100930972Y-142890419D02*
X100597639Y-143890419D01*
X100597639Y-143890419D02*
X100264306Y-142890419D01*
X99550020Y-143842800D02*
X99645258Y-143890419D01*
X99645258Y-143890419D02*
X99835734Y-143890419D01*
X99835734Y-143890419D02*
X99930972Y-143842800D01*
X99930972Y-143842800D02*
X99978591Y-143747561D01*
X99978591Y-143747561D02*
X99978591Y-143366609D01*
X99978591Y-143366609D02*
X99930972Y-143271371D01*
X99930972Y-143271371D02*
X99835734Y-143223752D01*
X99835734Y-143223752D02*
X99645258Y-143223752D01*
X99645258Y-143223752D02*
X99550020Y-143271371D01*
X99550020Y-143271371D02*
X99502401Y-143366609D01*
X99502401Y-143366609D02*
X99502401Y-143461847D01*
X99502401Y-143461847D02*
X99978591Y-143557085D01*
X99073829Y-143890419D02*
X99073829Y-143223752D01*
X99073829Y-143414228D02*
X99026210Y-143318990D01*
X99026210Y-143318990D02*
X98978591Y-143271371D01*
X98978591Y-143271371D02*
X98883353Y-143223752D01*
X98883353Y-143223752D02*
X98788115Y-143223752D01*
X98502400Y-143842800D02*
X98407162Y-143890419D01*
X98407162Y-143890419D02*
X98216686Y-143890419D01*
X98216686Y-143890419D02*
X98121448Y-143842800D01*
X98121448Y-143842800D02*
X98073829Y-143747561D01*
X98073829Y-143747561D02*
X98073829Y-143699942D01*
X98073829Y-143699942D02*
X98121448Y-143604704D01*
X98121448Y-143604704D02*
X98216686Y-143557085D01*
X98216686Y-143557085D02*
X98359543Y-143557085D01*
X98359543Y-143557085D02*
X98454781Y-143509466D01*
X98454781Y-143509466D02*
X98502400Y-143414228D01*
X98502400Y-143414228D02*
X98502400Y-143366609D01*
X98502400Y-143366609D02*
X98454781Y-143271371D01*
X98454781Y-143271371D02*
X98359543Y-143223752D01*
X98359543Y-143223752D02*
X98216686Y-143223752D01*
X98216686Y-143223752D02*
X98121448Y-143271371D01*
X97645257Y-143890419D02*
X97645257Y-143223752D01*
X97645257Y-142890419D02*
X97692876Y-142938038D01*
X97692876Y-142938038D02*
X97645257Y-142985657D01*
X97645257Y-142985657D02*
X97597638Y-142938038D01*
X97597638Y-142938038D02*
X97645257Y-142890419D01*
X97645257Y-142890419D02*
X97645257Y-142985657D01*
X97026210Y-143890419D02*
X97121448Y-143842800D01*
X97121448Y-143842800D02*
X97169067Y-143795180D01*
X97169067Y-143795180D02*
X97216686Y-143699942D01*
X97216686Y-143699942D02*
X97216686Y-143414228D01*
X97216686Y-143414228D02*
X97169067Y-143318990D01*
X97169067Y-143318990D02*
X97121448Y-143271371D01*
X97121448Y-143271371D02*
X97026210Y-143223752D01*
X97026210Y-143223752D02*
X96883353Y-143223752D01*
X96883353Y-143223752D02*
X96788115Y-143271371D01*
X96788115Y-143271371D02*
X96740496Y-143318990D01*
X96740496Y-143318990D02*
X96692877Y-143414228D01*
X96692877Y-143414228D02*
X96692877Y-143699942D01*
X96692877Y-143699942D02*
X96740496Y-143795180D01*
X96740496Y-143795180D02*
X96788115Y-143842800D01*
X96788115Y-143842800D02*
X96883353Y-143890419D01*
X96883353Y-143890419D02*
X97026210Y-143890419D01*
X96264305Y-143223752D02*
X96264305Y-143890419D01*
X96264305Y-143318990D02*
X96216686Y-143271371D01*
X96216686Y-143271371D02*
X96121448Y-143223752D01*
X96121448Y-143223752D02*
X95978591Y-143223752D01*
X95978591Y-143223752D02*
X95883353Y-143271371D01*
X95883353Y-143271371D02*
X95835734Y-143366609D01*
X95835734Y-143366609D02*
X95835734Y-143890419D01*
X94073829Y-143890419D02*
X94645257Y-143890419D01*
X94359543Y-143890419D02*
X94359543Y-142890419D01*
X94359543Y-142890419D02*
X94454781Y-143033276D01*
X94454781Y-143033276D02*
X94550019Y-143128514D01*
X94550019Y-143128514D02*
X94645257Y-143176133D01*
X93645257Y-143795180D02*
X93597638Y-143842800D01*
X93597638Y-143842800D02*
X93645257Y-143890419D01*
X93645257Y-143890419D02*
X93692876Y-143842800D01*
X93692876Y-143842800D02*
X93645257Y-143795180D01*
X93645257Y-143795180D02*
X93645257Y-143890419D01*
X92978591Y-142890419D02*
X92883353Y-142890419D01*
X92883353Y-142890419D02*
X92788115Y-142938038D01*
X92788115Y-142938038D02*
X92740496Y-142985657D01*
X92740496Y-142985657D02*
X92692877Y-143080895D01*
X92692877Y-143080895D02*
X92645258Y-143271371D01*
X92645258Y-143271371D02*
X92645258Y-143509466D01*
X92645258Y-143509466D02*
X92692877Y-143699942D01*
X92692877Y-143699942D02*
X92740496Y-143795180D01*
X92740496Y-143795180D02*
X92788115Y-143842800D01*
X92788115Y-143842800D02*
X92883353Y-143890419D01*
X92883353Y-143890419D02*
X92978591Y-143890419D01*
X92978591Y-143890419D02*
X93073829Y-143842800D01*
X93073829Y-143842800D02*
X93121448Y-143795180D01*
X93121448Y-143795180D02*
X93169067Y-143699942D01*
X93169067Y-143699942D02*
X93216686Y-143509466D01*
X93216686Y-143509466D02*
X93216686Y-143271371D01*
X93216686Y-143271371D02*
X93169067Y-143080895D01*
X93169067Y-143080895D02*
X93121448Y-142985657D01*
X93121448Y-142985657D02*
X93073829Y-142938038D01*
X93073829Y-142938038D02*
X92978591Y-142890419D01*
D11*
%TO.C,REF\u002A\u002A*%
X92756406Y-138672949D02*
X92782127Y-138688647D01*
X92808778Y-138710227D01*
X92808778Y-139357684D01*
X92782127Y-139379264D01*
X92750767Y-139396739D01*
X92714966Y-139397575D01*
X92683528Y-139377082D01*
X92679652Y-139372416D01*
X92674186Y-139362949D01*
X92669979Y-139349267D01*
X92666867Y-139328748D01*
X92664687Y-139298768D01*
X92663276Y-139256704D01*
X92662471Y-139199932D01*
X92662107Y-139125830D01*
X92662022Y-139031773D01*
X92662022Y-138710227D01*
X92688673Y-138688647D01*
X92712386Y-138673877D01*
X92735400Y-138667067D01*
X92756406Y-138672949D01*
G36*
X92756406Y-138672949D02*
G01*
X92782127Y-138688647D01*
X92808778Y-138710227D01*
X92808778Y-139357684D01*
X92782127Y-139379264D01*
X92750767Y-139396739D01*
X92714966Y-139397575D01*
X92683528Y-139377082D01*
X92679652Y-139372416D01*
X92674186Y-139362949D01*
X92669979Y-139349267D01*
X92666867Y-139328748D01*
X92664687Y-139298768D01*
X92663276Y-139256704D01*
X92662471Y-139199932D01*
X92662107Y-139125830D01*
X92662022Y-139031773D01*
X92662022Y-138710227D01*
X92688673Y-138688647D01*
X92712386Y-138673877D01*
X92735400Y-138667067D01*
X92756406Y-138672949D01*
G37*
X99887137Y-138671463D02*
X99921291Y-138694776D01*
X99949000Y-138722485D01*
X99949000Y-139035537D01*
X99948959Y-139119567D01*
X99948701Y-139193789D01*
X99948030Y-139250541D01*
X99946752Y-139292512D01*
X99944673Y-139322389D01*
X99941599Y-139342861D01*
X99937334Y-139356614D01*
X99931684Y-139366337D01*
X99924455Y-139374717D01*
X99892991Y-139396181D01*
X99857826Y-139397947D01*
X99824822Y-139378267D01*
X99819516Y-139372398D01*
X99814066Y-139363314D01*
X99809900Y-139349973D01*
X99806846Y-139329757D01*
X99804732Y-139300049D01*
X99803386Y-139258232D01*
X99802638Y-139201689D01*
X99802314Y-139127802D01*
X99802245Y-139033956D01*
X99802284Y-138958294D01*
X99802539Y-138880385D01*
X99803183Y-138820375D01*
X99804387Y-138775648D01*
X99806324Y-138743585D01*
X99809164Y-138721571D01*
X99813079Y-138706987D01*
X99818242Y-138697218D01*
X99824822Y-138689645D01*
X99854006Y-138670623D01*
X99887137Y-138671463D01*
G36*
X99887137Y-138671463D02*
G01*
X99921291Y-138694776D01*
X99949000Y-138722485D01*
X99949000Y-139035537D01*
X99948959Y-139119567D01*
X99948701Y-139193789D01*
X99948030Y-139250541D01*
X99946752Y-139292512D01*
X99944673Y-139322389D01*
X99941599Y-139342861D01*
X99937334Y-139356614D01*
X99931684Y-139366337D01*
X99924455Y-139374717D01*
X99892991Y-139396181D01*
X99857826Y-139397947D01*
X99824822Y-139378267D01*
X99819516Y-139372398D01*
X99814066Y-139363314D01*
X99809900Y-139349973D01*
X99806846Y-139329757D01*
X99804732Y-139300049D01*
X99803386Y-139258232D01*
X99802638Y-139201689D01*
X99802314Y-139127802D01*
X99802245Y-139033956D01*
X99802284Y-138958294D01*
X99802539Y-138880385D01*
X99803183Y-138820375D01*
X99804387Y-138775648D01*
X99806324Y-138743585D01*
X99809164Y-138721571D01*
X99813079Y-138706987D01*
X99818242Y-138697218D01*
X99824822Y-138689645D01*
X99854006Y-138670623D01*
X99887137Y-138671463D01*
G37*
X99355562Y-133430850D02*
X99438313Y-133458053D01*
X99513406Y-133503484D01*
X99585298Y-133569302D01*
X99623846Y-133613567D01*
X99663256Y-133671961D01*
X99688446Y-133732586D01*
X99701861Y-133801865D01*
X99705948Y-133886222D01*
X99705669Y-133932307D01*
X99703460Y-133973450D01*
X99697894Y-134005582D01*
X99687586Y-134036122D01*
X99671148Y-134072489D01*
X99657200Y-134099728D01*
X99598665Y-134185429D01*
X99526619Y-134254617D01*
X99442947Y-134305741D01*
X99349531Y-134337250D01*
X99316434Y-134344225D01*
X99275960Y-134351094D01*
X99242999Y-134352919D01*
X99208698Y-134349947D01*
X99164200Y-134342426D01*
X99112934Y-134330002D01*
X99022434Y-134292112D01*
X98943345Y-134237836D01*
X98877528Y-134169770D01*
X98826840Y-134090511D01*
X98793140Y-134002654D01*
X98778286Y-133908795D01*
X98784136Y-133811530D01*
X98810399Y-133715220D01*
X98855418Y-133626494D01*
X98916373Y-133551419D01*
X98991184Y-133491641D01*
X99077768Y-133448809D01*
X99174043Y-133424571D01*
X99277928Y-133420576D01*
X99355562Y-133430850D01*
G36*
X99355562Y-133430850D02*
G01*
X99438313Y-133458053D01*
X99513406Y-133503484D01*
X99585298Y-133569302D01*
X99623846Y-133613567D01*
X99663256Y-133671961D01*
X99688446Y-133732586D01*
X99701861Y-133801865D01*
X99705948Y-133886222D01*
X99705669Y-133932307D01*
X99703460Y-133973450D01*
X99697894Y-134005582D01*
X99687586Y-134036122D01*
X99671148Y-134072489D01*
X99657200Y-134099728D01*
X99598665Y-134185429D01*
X99526619Y-134254617D01*
X99442947Y-134305741D01*
X99349531Y-134337250D01*
X99316434Y-134344225D01*
X99275960Y-134351094D01*
X99242999Y-134352919D01*
X99208698Y-134349947D01*
X99164200Y-134342426D01*
X99112934Y-134330002D01*
X99022434Y-134292112D01*
X98943345Y-134237836D01*
X98877528Y-134169770D01*
X98826840Y-134090511D01*
X98793140Y-134002654D01*
X98778286Y-133908795D01*
X98784136Y-133811530D01*
X98810399Y-133715220D01*
X98855418Y-133626494D01*
X98916373Y-133551419D01*
X98991184Y-133491641D01*
X99077768Y-133448809D01*
X99174043Y-133424571D01*
X99277928Y-133420576D01*
X99355562Y-133430850D01*
G37*
X92056767Y-138667068D02*
X92150890Y-138667158D01*
X92225405Y-138667498D01*
X92282811Y-138668239D01*
X92325611Y-138669535D01*
X92356304Y-138671537D01*
X92377391Y-138674396D01*
X92391373Y-138678266D01*
X92400750Y-138683298D01*
X92408022Y-138689645D01*
X92426828Y-138722362D01*
X92428275Y-138759939D01*
X92411917Y-138793178D01*
X92410557Y-138794631D01*
X92399354Y-138802992D01*
X92382252Y-138808547D01*
X92355082Y-138811840D01*
X92313678Y-138813418D01*
X92253873Y-138813822D01*
X92114511Y-138813822D01*
X92114511Y-139077589D01*
X92114436Y-139153417D01*
X92114028Y-139220083D01*
X92113046Y-139269867D01*
X92111250Y-139305784D01*
X92108399Y-139330850D01*
X92104253Y-139348081D01*
X92098571Y-139360492D01*
X92091114Y-139371100D01*
X92088824Y-139373906D01*
X92057646Y-139396548D01*
X92023266Y-139398112D01*
X91990334Y-139378267D01*
X91983355Y-139370191D01*
X91977883Y-139359593D01*
X91973863Y-139343749D01*
X91971072Y-139319773D01*
X91969288Y-139284774D01*
X91968289Y-139235864D01*
X91967852Y-139170154D01*
X91967756Y-139084756D01*
X91967756Y-138813822D01*
X91821820Y-138813822D01*
X91810720Y-138813821D01*
X91754202Y-138813596D01*
X91715358Y-138812457D01*
X91689965Y-138809657D01*
X91673804Y-138804450D01*
X91662652Y-138796089D01*
X91652289Y-138783826D01*
X91636441Y-138753138D01*
X91639543Y-138719358D01*
X91665187Y-138686822D01*
X91670129Y-138683105D01*
X91680338Y-138678269D01*
X91695764Y-138674506D01*
X91718886Y-138671683D01*
X91752183Y-138669670D01*
X91798137Y-138668333D01*
X91859228Y-138667542D01*
X91937935Y-138667163D01*
X92036740Y-138667067D01*
X92056767Y-138667068D01*
G36*
X92056767Y-138667068D02*
G01*
X92150890Y-138667158D01*
X92225405Y-138667498D01*
X92282811Y-138668239D01*
X92325611Y-138669535D01*
X92356304Y-138671537D01*
X92377391Y-138674396D01*
X92391373Y-138678266D01*
X92400750Y-138683298D01*
X92408022Y-138689645D01*
X92426828Y-138722362D01*
X92428275Y-138759939D01*
X92411917Y-138793178D01*
X92410557Y-138794631D01*
X92399354Y-138802992D01*
X92382252Y-138808547D01*
X92355082Y-138811840D01*
X92313678Y-138813418D01*
X92253873Y-138813822D01*
X92114511Y-138813822D01*
X92114511Y-139077589D01*
X92114436Y-139153417D01*
X92114028Y-139220083D01*
X92113046Y-139269867D01*
X92111250Y-139305784D01*
X92108399Y-139330850D01*
X92104253Y-139348081D01*
X92098571Y-139360492D01*
X92091114Y-139371100D01*
X92088824Y-139373906D01*
X92057646Y-139396548D01*
X92023266Y-139398112D01*
X91990334Y-139378267D01*
X91983355Y-139370191D01*
X91977883Y-139359593D01*
X91973863Y-139343749D01*
X91971072Y-139319773D01*
X91969288Y-139284774D01*
X91968289Y-139235864D01*
X91967852Y-139170154D01*
X91967756Y-139084756D01*
X91967756Y-138813822D01*
X91821820Y-138813822D01*
X91810720Y-138813821D01*
X91754202Y-138813596D01*
X91715358Y-138812457D01*
X91689965Y-138809657D01*
X91673804Y-138804450D01*
X91662652Y-138796089D01*
X91652289Y-138783826D01*
X91636441Y-138753138D01*
X91639543Y-138719358D01*
X91665187Y-138686822D01*
X91670129Y-138683105D01*
X91680338Y-138678269D01*
X91695764Y-138674506D01*
X91718886Y-138671683D01*
X91752183Y-138669670D01*
X91798137Y-138668333D01*
X91859228Y-138667542D01*
X91937935Y-138667163D01*
X92036740Y-138667067D01*
X92056767Y-138667068D01*
G37*
X91380734Y-138689645D02*
X91386366Y-138695835D01*
X91391456Y-138704041D01*
X91395543Y-138715817D01*
X91398721Y-138733276D01*
X91401087Y-138758530D01*
X91402738Y-138793690D01*
X91403769Y-138840869D01*
X91404277Y-138902177D01*
X91404359Y-138979727D01*
X91404109Y-139075631D01*
X91403625Y-139192000D01*
X91403557Y-139206175D01*
X91402971Y-139267937D01*
X91401648Y-139311620D01*
X91399103Y-139341001D01*
X91394848Y-139359855D01*
X91388396Y-139371959D01*
X91379262Y-139381089D01*
X91345804Y-139398506D01*
X91310856Y-139395604D01*
X91279953Y-139371100D01*
X91270944Y-139357897D01*
X91263492Y-139339361D01*
X91259124Y-139313333D01*
X91257069Y-139274787D01*
X91256556Y-139218700D01*
X91256556Y-139096045D01*
X90759845Y-139096045D01*
X90759845Y-139230871D01*
X90759772Y-139266662D01*
X90759009Y-139312992D01*
X90756833Y-139343526D01*
X90752536Y-139362557D01*
X90745412Y-139374374D01*
X90734755Y-139383271D01*
X90702504Y-139398341D01*
X90667217Y-139395673D01*
X90636486Y-139371100D01*
X90631831Y-139364845D01*
X90625895Y-139354321D01*
X90621364Y-139340391D01*
X90618048Y-139320317D01*
X90615759Y-139291360D01*
X90614308Y-139250780D01*
X90613505Y-139195840D01*
X90613162Y-139123799D01*
X90613089Y-139031920D01*
X90613089Y-138722485D01*
X90640798Y-138694776D01*
X90672177Y-138672533D01*
X90705406Y-138669844D01*
X90737267Y-138689645D01*
X90745553Y-138699415D01*
X90752965Y-138715307D01*
X90757302Y-138739275D01*
X90759338Y-138776148D01*
X90759845Y-138830756D01*
X90759845Y-138949289D01*
X91256556Y-138949289D01*
X91256556Y-138833776D01*
X91256994Y-138782078D01*
X91258958Y-138747554D01*
X91263474Y-138724978D01*
X91271567Y-138709126D01*
X91284265Y-138694776D01*
X91315643Y-138672533D01*
X91348872Y-138669844D01*
X91380734Y-138689645D01*
G36*
X91380734Y-138689645D02*
G01*
X91386366Y-138695835D01*
X91391456Y-138704041D01*
X91395543Y-138715817D01*
X91398721Y-138733276D01*
X91401087Y-138758530D01*
X91402738Y-138793690D01*
X91403769Y-138840869D01*
X91404277Y-138902177D01*
X91404359Y-138979727D01*
X91404109Y-139075631D01*
X91403625Y-139192000D01*
X91403557Y-139206175D01*
X91402971Y-139267937D01*
X91401648Y-139311620D01*
X91399103Y-139341001D01*
X91394848Y-139359855D01*
X91388396Y-139371959D01*
X91379262Y-139381089D01*
X91345804Y-139398506D01*
X91310856Y-139395604D01*
X91279953Y-139371100D01*
X91270944Y-139357897D01*
X91263492Y-139339361D01*
X91259124Y-139313333D01*
X91257069Y-139274787D01*
X91256556Y-139218700D01*
X91256556Y-139096045D01*
X90759845Y-139096045D01*
X90759845Y-139230871D01*
X90759772Y-139266662D01*
X90759009Y-139312992D01*
X90756833Y-139343526D01*
X90752536Y-139362557D01*
X90745412Y-139374374D01*
X90734755Y-139383271D01*
X90702504Y-139398341D01*
X90667217Y-139395673D01*
X90636486Y-139371100D01*
X90631831Y-139364845D01*
X90625895Y-139354321D01*
X90621364Y-139340391D01*
X90618048Y-139320317D01*
X90615759Y-139291360D01*
X90614308Y-139250780D01*
X90613505Y-139195840D01*
X90613162Y-139123799D01*
X90613089Y-139031920D01*
X90613089Y-138722485D01*
X90640798Y-138694776D01*
X90672177Y-138672533D01*
X90705406Y-138669844D01*
X90737267Y-138689645D01*
X90745553Y-138699415D01*
X90752965Y-138715307D01*
X90757302Y-138739275D01*
X90759338Y-138776148D01*
X90759845Y-138830756D01*
X90759845Y-138949289D01*
X91256556Y-138949289D01*
X91256556Y-138833776D01*
X91256994Y-138782078D01*
X91258958Y-138747554D01*
X91263474Y-138724978D01*
X91271567Y-138709126D01*
X91284265Y-138694776D01*
X91315643Y-138672533D01*
X91348872Y-138669844D01*
X91380734Y-138689645D01*
G37*
X96086133Y-139278396D02*
X96084163Y-139311175D01*
X96081235Y-139334095D01*
X96077158Y-139349897D01*
X96071743Y-139361319D01*
X96064803Y-139371100D01*
X96041406Y-139400845D01*
X95875714Y-139400251D01*
X95840918Y-139399953D01*
X95742435Y-139396522D01*
X95661473Y-139388839D01*
X95594379Y-139376282D01*
X95537496Y-139358227D01*
X95487169Y-139334052D01*
X95483810Y-139332135D01*
X95425998Y-139295417D01*
X95383644Y-139258451D01*
X95350828Y-139214966D01*
X95321628Y-139158689D01*
X95317346Y-139149073D01*
X95294769Y-139085887D01*
X95289034Y-139040333D01*
X95438279Y-139040333D01*
X95443892Y-139065061D01*
X95449618Y-139080939D01*
X95482548Y-139140847D01*
X95529886Y-139186600D01*
X95593652Y-139219736D01*
X95675861Y-139241790D01*
X95678655Y-139242292D01*
X95724940Y-139248255D01*
X95781336Y-139252483D01*
X95836274Y-139254089D01*
X95930156Y-139254089D01*
X95930156Y-138813822D01*
X95842667Y-138814270D01*
X95775747Y-138816746D01*
X95683349Y-138827998D01*
X95604034Y-138847537D01*
X95542060Y-138874511D01*
X95511120Y-138895240D01*
X95483000Y-138925006D01*
X95459660Y-138967434D01*
X95452533Y-138983400D01*
X95440709Y-139015902D01*
X95438279Y-139040333D01*
X95289034Y-139040333D01*
X95287797Y-139030509D01*
X95296399Y-138975483D01*
X95320541Y-138913351D01*
X95321337Y-138911658D01*
X95361788Y-138842236D01*
X95412473Y-138785638D01*
X95475198Y-138741070D01*
X95551774Y-138707741D01*
X95644009Y-138684861D01*
X95753712Y-138671636D01*
X95882691Y-138667275D01*
X95886263Y-138667270D01*
X95946283Y-138667410D01*
X95988214Y-138668446D01*
X96016328Y-138671040D01*
X96034897Y-138675853D01*
X96048194Y-138683544D01*
X96060491Y-138694776D01*
X96088200Y-138722485D01*
X96088200Y-139031920D01*
X96088175Y-139093526D01*
X96087950Y-139172311D01*
X96087332Y-139233021D01*
X96086775Y-139254089D01*
X96086133Y-139278396D01*
G36*
X96086133Y-139278396D02*
G01*
X96084163Y-139311175D01*
X96081235Y-139334095D01*
X96077158Y-139349897D01*
X96071743Y-139361319D01*
X96064803Y-139371100D01*
X96041406Y-139400845D01*
X95875714Y-139400251D01*
X95840918Y-139399953D01*
X95742435Y-139396522D01*
X95661473Y-139388839D01*
X95594379Y-139376282D01*
X95537496Y-139358227D01*
X95487169Y-139334052D01*
X95483810Y-139332135D01*
X95425998Y-139295417D01*
X95383644Y-139258451D01*
X95350828Y-139214966D01*
X95321628Y-139158689D01*
X95317346Y-139149073D01*
X95294769Y-139085887D01*
X95289034Y-139040333D01*
X95438279Y-139040333D01*
X95443892Y-139065061D01*
X95449618Y-139080939D01*
X95482548Y-139140847D01*
X95529886Y-139186600D01*
X95593652Y-139219736D01*
X95675861Y-139241790D01*
X95678655Y-139242292D01*
X95724940Y-139248255D01*
X95781336Y-139252483D01*
X95836274Y-139254089D01*
X95930156Y-139254089D01*
X95930156Y-138813822D01*
X95842667Y-138814270D01*
X95775747Y-138816746D01*
X95683349Y-138827998D01*
X95604034Y-138847537D01*
X95542060Y-138874511D01*
X95511120Y-138895240D01*
X95483000Y-138925006D01*
X95459660Y-138967434D01*
X95452533Y-138983400D01*
X95440709Y-139015902D01*
X95438279Y-139040333D01*
X95289034Y-139040333D01*
X95287797Y-139030509D01*
X95296399Y-138975483D01*
X95320541Y-138913351D01*
X95321337Y-138911658D01*
X95361788Y-138842236D01*
X95412473Y-138785638D01*
X95475198Y-138741070D01*
X95551774Y-138707741D01*
X95644009Y-138684861D01*
X95753712Y-138671636D01*
X95882691Y-138667275D01*
X95886263Y-138667270D01*
X95946283Y-138667410D01*
X95988214Y-138668446D01*
X96016328Y-138671040D01*
X96034897Y-138675853D01*
X96048194Y-138683544D01*
X96060491Y-138694776D01*
X96088200Y-138722485D01*
X96088200Y-139031920D01*
X96088175Y-139093526D01*
X96087950Y-139172311D01*
X96087332Y-139233021D01*
X96086775Y-139254089D01*
X96086133Y-139278396D01*
G37*
X103177817Y-138852427D02*
X103177870Y-138933041D01*
X103177622Y-139033956D01*
X103177583Y-139109617D01*
X103177328Y-139187526D01*
X103176684Y-139247536D01*
X103175480Y-139292264D01*
X103173543Y-139324326D01*
X103170703Y-139346340D01*
X103166788Y-139360924D01*
X103161626Y-139370694D01*
X103155045Y-139378267D01*
X103148077Y-139384501D01*
X103135079Y-139391801D01*
X103115931Y-139396554D01*
X103086528Y-139399292D01*
X103042762Y-139400545D01*
X102980528Y-139400845D01*
X102931582Y-139400469D01*
X102824722Y-139396041D01*
X102735494Y-139385953D01*
X102660696Y-139369365D01*
X102597125Y-139345435D01*
X102541579Y-139313321D01*
X102490854Y-139272182D01*
X102484866Y-139266330D01*
X102447999Y-139217821D01*
X102416899Y-139157013D01*
X102395417Y-139092769D01*
X102390136Y-139054026D01*
X102537353Y-139054026D01*
X102555635Y-139104961D01*
X102585305Y-139150878D01*
X102632002Y-139193287D01*
X102693392Y-139223090D01*
X102772538Y-139242226D01*
X102774028Y-139242464D01*
X102822999Y-139248256D01*
X102881693Y-139252396D01*
X102937734Y-139254004D01*
X103030867Y-139254089D01*
X103030867Y-138813822D01*
X102954667Y-138813808D01*
X102951639Y-138813817D01*
X102900519Y-138815782D01*
X102840416Y-138820507D01*
X102783708Y-138827035D01*
X102733750Y-138836331D01*
X102658998Y-138862600D01*
X102601489Y-138901899D01*
X102559988Y-138954933D01*
X102538771Y-139006200D01*
X102537353Y-139054026D01*
X102390136Y-139054026D01*
X102387400Y-139033956D01*
X102388679Y-139012739D01*
X102400991Y-138955323D01*
X102423520Y-138895413D01*
X102452750Y-138841363D01*
X102485167Y-138801532D01*
X102504708Y-138784510D01*
X102559420Y-138745322D01*
X102619723Y-138715193D01*
X102688919Y-138693232D01*
X102770311Y-138678550D01*
X102867200Y-138670259D01*
X102982889Y-138667467D01*
X103022371Y-138667066D01*
X103068082Y-138666653D01*
X103103883Y-138668457D01*
X103130974Y-138674739D01*
X103150556Y-138687759D01*
X103163830Y-138709778D01*
X103171998Y-138743055D01*
X103176260Y-138789851D01*
X103176857Y-138813822D01*
X103177817Y-138852427D01*
G36*
X103177817Y-138852427D02*
G01*
X103177870Y-138933041D01*
X103177622Y-139033956D01*
X103177583Y-139109617D01*
X103177328Y-139187526D01*
X103176684Y-139247536D01*
X103175480Y-139292264D01*
X103173543Y-139324326D01*
X103170703Y-139346340D01*
X103166788Y-139360924D01*
X103161626Y-139370694D01*
X103155045Y-139378267D01*
X103148077Y-139384501D01*
X103135079Y-139391801D01*
X103115931Y-139396554D01*
X103086528Y-139399292D01*
X103042762Y-139400545D01*
X102980528Y-139400845D01*
X102931582Y-139400469D01*
X102824722Y-139396041D01*
X102735494Y-139385953D01*
X102660696Y-139369365D01*
X102597125Y-139345435D01*
X102541579Y-139313321D01*
X102490854Y-139272182D01*
X102484866Y-139266330D01*
X102447999Y-139217821D01*
X102416899Y-139157013D01*
X102395417Y-139092769D01*
X102390136Y-139054026D01*
X102537353Y-139054026D01*
X102555635Y-139104961D01*
X102585305Y-139150878D01*
X102632002Y-139193287D01*
X102693392Y-139223090D01*
X102772538Y-139242226D01*
X102774028Y-139242464D01*
X102822999Y-139248256D01*
X102881693Y-139252396D01*
X102937734Y-139254004D01*
X103030867Y-139254089D01*
X103030867Y-138813822D01*
X102954667Y-138813808D01*
X102951639Y-138813817D01*
X102900519Y-138815782D01*
X102840416Y-138820507D01*
X102783708Y-138827035D01*
X102733750Y-138836331D01*
X102658998Y-138862600D01*
X102601489Y-138901899D01*
X102559988Y-138954933D01*
X102538771Y-139006200D01*
X102537353Y-139054026D01*
X102390136Y-139054026D01*
X102387400Y-139033956D01*
X102388679Y-139012739D01*
X102400991Y-138955323D01*
X102423520Y-138895413D01*
X102452750Y-138841363D01*
X102485167Y-138801532D01*
X102504708Y-138784510D01*
X102559420Y-138745322D01*
X102619723Y-138715193D01*
X102688919Y-138693232D01*
X102770311Y-138678550D01*
X102867200Y-138670259D01*
X102982889Y-138667467D01*
X103022371Y-138667066D01*
X103068082Y-138666653D01*
X103103883Y-138668457D01*
X103130974Y-138674739D01*
X103150556Y-138687759D01*
X103163830Y-138709778D01*
X103171998Y-138743055D01*
X103176260Y-138789851D01*
X103176857Y-138813822D01*
X103177817Y-138852427D01*
G37*
X98232893Y-138665892D02*
X98244301Y-138672029D01*
X98254850Y-138682691D01*
X98266136Y-138696811D01*
X98270589Y-138702772D01*
X98276588Y-138713268D01*
X98281167Y-138727093D01*
X98284519Y-138746998D01*
X98286833Y-138775732D01*
X98288301Y-138816045D01*
X98289113Y-138870687D01*
X98289460Y-138942407D01*
X98289534Y-139033956D01*
X98289511Y-139092486D01*
X98289292Y-139171573D01*
X98288683Y-139232516D01*
X98287492Y-139278062D01*
X98285529Y-139310963D01*
X98282603Y-139333968D01*
X98278523Y-139349826D01*
X98273097Y-139361286D01*
X98266136Y-139371100D01*
X98235708Y-139395493D01*
X98200765Y-139398372D01*
X98163784Y-139379282D01*
X98159600Y-139375807D01*
X98151424Y-139367279D01*
X98145364Y-139355728D01*
X98140981Y-139337896D01*
X98137839Y-139310524D01*
X98135502Y-139270354D01*
X98133531Y-139214128D01*
X98131489Y-139138589D01*
X98125845Y-138919458D01*
X97860556Y-139160099D01*
X97786722Y-139226875D01*
X97721542Y-139284991D01*
X97669348Y-139329949D01*
X97628273Y-139362871D01*
X97596455Y-139384879D01*
X97572026Y-139397094D01*
X97553124Y-139400639D01*
X97537883Y-139396636D01*
X97524439Y-139386207D01*
X97510927Y-139370474D01*
X97504682Y-139361991D01*
X97499050Y-139351413D01*
X97494839Y-139337255D01*
X97491887Y-139316803D01*
X97490032Y-139287342D01*
X97489113Y-139246161D01*
X97488968Y-139190544D01*
X97489435Y-139117779D01*
X97490352Y-139025151D01*
X97493667Y-138710199D01*
X97520318Y-138688633D01*
X97546383Y-138672441D01*
X97579241Y-138669670D01*
X97613772Y-138688623D01*
X97618084Y-138692208D01*
X97626216Y-138700737D01*
X97632245Y-138712329D01*
X97636606Y-138730235D01*
X97639734Y-138757706D01*
X97642063Y-138797994D01*
X97644029Y-138854351D01*
X97646067Y-138930029D01*
X97651711Y-139149878D01*
X97832334Y-138986084D01*
X97919072Y-138907451D01*
X97994843Y-138839058D01*
X98056980Y-138783708D01*
X98107078Y-138740338D01*
X98146735Y-138707881D01*
X98177548Y-138685273D01*
X98201114Y-138671448D01*
X98219030Y-138665343D01*
X98232893Y-138665892D01*
G36*
X98232893Y-138665892D02*
G01*
X98244301Y-138672029D01*
X98254850Y-138682691D01*
X98266136Y-138696811D01*
X98270589Y-138702772D01*
X98276588Y-138713268D01*
X98281167Y-138727093D01*
X98284519Y-138746998D01*
X98286833Y-138775732D01*
X98288301Y-138816045D01*
X98289113Y-138870687D01*
X98289460Y-138942407D01*
X98289534Y-139033956D01*
X98289511Y-139092486D01*
X98289292Y-139171573D01*
X98288683Y-139232516D01*
X98287492Y-139278062D01*
X98285529Y-139310963D01*
X98282603Y-139333968D01*
X98278523Y-139349826D01*
X98273097Y-139361286D01*
X98266136Y-139371100D01*
X98235708Y-139395493D01*
X98200765Y-139398372D01*
X98163784Y-139379282D01*
X98159600Y-139375807D01*
X98151424Y-139367279D01*
X98145364Y-139355728D01*
X98140981Y-139337896D01*
X98137839Y-139310524D01*
X98135502Y-139270354D01*
X98133531Y-139214128D01*
X98131489Y-139138589D01*
X98125845Y-138919458D01*
X97860556Y-139160099D01*
X97786722Y-139226875D01*
X97721542Y-139284991D01*
X97669348Y-139329949D01*
X97628273Y-139362871D01*
X97596455Y-139384879D01*
X97572026Y-139397094D01*
X97553124Y-139400639D01*
X97537883Y-139396636D01*
X97524439Y-139386207D01*
X97510927Y-139370474D01*
X97504682Y-139361991D01*
X97499050Y-139351413D01*
X97494839Y-139337255D01*
X97491887Y-139316803D01*
X97490032Y-139287342D01*
X97489113Y-139246161D01*
X97488968Y-139190544D01*
X97489435Y-139117779D01*
X97490352Y-139025151D01*
X97493667Y-138710199D01*
X97520318Y-138688633D01*
X97546383Y-138672441D01*
X97579241Y-138669670D01*
X97613772Y-138688623D01*
X97618084Y-138692208D01*
X97626216Y-138700737D01*
X97632245Y-138712329D01*
X97636606Y-138730235D01*
X97639734Y-138757706D01*
X97642063Y-138797994D01*
X97644029Y-138854351D01*
X97646067Y-138930029D01*
X97651711Y-139149878D01*
X97832334Y-138986084D01*
X97919072Y-138907451D01*
X97994843Y-138839058D01*
X98056980Y-138783708D01*
X98107078Y-138740338D01*
X98146735Y-138707881D01*
X98177548Y-138685273D01*
X98201114Y-138671448D01*
X98219030Y-138665343D01*
X98232893Y-138665892D01*
G37*
X99030150Y-138672179D02*
X99136157Y-138688494D01*
X99229969Y-138716545D01*
X99308765Y-138755452D01*
X99369719Y-138804334D01*
X99395789Y-138837195D01*
X99425297Y-138886394D01*
X99450568Y-138940252D01*
X99468218Y-138991419D01*
X99474858Y-139032544D01*
X99473298Y-139052259D01*
X99460357Y-139103592D01*
X99437194Y-139160118D01*
X99407302Y-139214035D01*
X99374173Y-139257539D01*
X99363977Y-139267887D01*
X99296892Y-139319662D01*
X99216766Y-139359554D01*
X99130556Y-139383956D01*
X99075592Y-139392068D01*
X98982139Y-139398673D01*
X98892358Y-139396586D01*
X98809869Y-139386340D01*
X98738286Y-139368470D01*
X98681228Y-139343508D01*
X98642311Y-139311988D01*
X98640936Y-139310012D01*
X98633848Y-139284786D01*
X98629609Y-139237535D01*
X98628200Y-139168071D01*
X98629060Y-139105838D01*
X98633780Y-139058456D01*
X98645470Y-139026353D01*
X98667239Y-139006800D01*
X98702198Y-138997070D01*
X98753456Y-138994433D01*
X98824123Y-138996161D01*
X98872743Y-138999173D01*
X98922939Y-139007366D01*
X98955433Y-139021419D01*
X98972892Y-139042654D01*
X98977983Y-139072394D01*
X98977877Y-139076936D01*
X98969175Y-139111730D01*
X98945165Y-139135147D01*
X98903900Y-139148347D01*
X98843431Y-139152489D01*
X98774956Y-139152489D01*
X98774956Y-139190841D01*
X98775006Y-139199976D01*
X98777227Y-139217227D01*
X98786494Y-139227521D01*
X98807875Y-139234459D01*
X98846436Y-139241641D01*
X98851910Y-139242575D01*
X98948860Y-139252478D01*
X99038852Y-139249559D01*
X99119760Y-139234829D01*
X99189459Y-139209299D01*
X99245824Y-139173978D01*
X99286729Y-139129879D01*
X99310051Y-139078012D01*
X99313663Y-139019388D01*
X99308145Y-138990494D01*
X99281461Y-138934604D01*
X99235273Y-138888945D01*
X99170291Y-138854108D01*
X99087229Y-138830690D01*
X99062555Y-138826241D01*
X98973226Y-138815742D01*
X98893419Y-138816971D01*
X98815326Y-138829906D01*
X98780183Y-138836696D01*
X98734745Y-138837713D01*
X98703430Y-138825182D01*
X98683277Y-138798395D01*
X98676893Y-138770148D01*
X98686379Y-138738924D01*
X98695708Y-138725499D01*
X98729943Y-138701967D01*
X98782565Y-138684095D01*
X98851081Y-138672599D01*
X98933000Y-138668192D01*
X99030150Y-138672179D01*
G36*
X99030150Y-138672179D02*
G01*
X99136157Y-138688494D01*
X99229969Y-138716545D01*
X99308765Y-138755452D01*
X99369719Y-138804334D01*
X99395789Y-138837195D01*
X99425297Y-138886394D01*
X99450568Y-138940252D01*
X99468218Y-138991419D01*
X99474858Y-139032544D01*
X99473298Y-139052259D01*
X99460357Y-139103592D01*
X99437194Y-139160118D01*
X99407302Y-139214035D01*
X99374173Y-139257539D01*
X99363977Y-139267887D01*
X99296892Y-139319662D01*
X99216766Y-139359554D01*
X99130556Y-139383956D01*
X99075592Y-139392068D01*
X98982139Y-139398673D01*
X98892358Y-139396586D01*
X98809869Y-139386340D01*
X98738286Y-139368470D01*
X98681228Y-139343508D01*
X98642311Y-139311988D01*
X98640936Y-139310012D01*
X98633848Y-139284786D01*
X98629609Y-139237535D01*
X98628200Y-139168071D01*
X98629060Y-139105838D01*
X98633780Y-139058456D01*
X98645470Y-139026353D01*
X98667239Y-139006800D01*
X98702198Y-138997070D01*
X98753456Y-138994433D01*
X98824123Y-138996161D01*
X98872743Y-138999173D01*
X98922939Y-139007366D01*
X98955433Y-139021419D01*
X98972892Y-139042654D01*
X98977983Y-139072394D01*
X98977877Y-139076936D01*
X98969175Y-139111730D01*
X98945165Y-139135147D01*
X98903900Y-139148347D01*
X98843431Y-139152489D01*
X98774956Y-139152489D01*
X98774956Y-139190841D01*
X98775006Y-139199976D01*
X98777227Y-139217227D01*
X98786494Y-139227521D01*
X98807875Y-139234459D01*
X98846436Y-139241641D01*
X98851910Y-139242575D01*
X98948860Y-139252478D01*
X99038852Y-139249559D01*
X99119760Y-139234829D01*
X99189459Y-139209299D01*
X99245824Y-139173978D01*
X99286729Y-139129879D01*
X99310051Y-139078012D01*
X99313663Y-139019388D01*
X99308145Y-138990494D01*
X99281461Y-138934604D01*
X99235273Y-138888945D01*
X99170291Y-138854108D01*
X99087229Y-138830690D01*
X99062555Y-138826241D01*
X98973226Y-138815742D01*
X98893419Y-138816971D01*
X98815326Y-138829906D01*
X98780183Y-138836696D01*
X98734745Y-138837713D01*
X98703430Y-138825182D01*
X98683277Y-138798395D01*
X98676893Y-138770148D01*
X98686379Y-138738924D01*
X98695708Y-138725499D01*
X98729943Y-138701967D01*
X98782565Y-138684095D01*
X98851081Y-138672599D01*
X98933000Y-138668192D01*
X99030150Y-138672179D01*
G37*
X97080803Y-138696811D02*
X97085752Y-138703495D01*
X97091596Y-138714066D01*
X97096057Y-138728153D01*
X97099321Y-138748478D01*
X97101574Y-138777765D01*
X97103002Y-138818737D01*
X97103792Y-138874117D01*
X97104129Y-138946628D01*
X97104200Y-139038994D01*
X97104171Y-139104911D01*
X97103939Y-139183228D01*
X97103319Y-139243496D01*
X97102126Y-139288393D01*
X97100179Y-139320602D01*
X97097294Y-139342800D01*
X97093288Y-139357669D01*
X97087979Y-139367889D01*
X97081183Y-139376138D01*
X97076668Y-139380795D01*
X97068438Y-139387282D01*
X97057078Y-139392194D01*
X97039810Y-139395749D01*
X97013855Y-139398167D01*
X96976436Y-139399667D01*
X96924773Y-139400467D01*
X96856089Y-139400787D01*
X96767606Y-139400845D01*
X96747931Y-139400838D01*
X96660906Y-139400572D01*
X96593254Y-139399806D01*
X96542299Y-139398392D01*
X96505367Y-139396180D01*
X96479783Y-139393022D01*
X96462871Y-139388769D01*
X96451957Y-139383271D01*
X96441464Y-139373285D01*
X96428203Y-139342168D01*
X96429386Y-139306280D01*
X96445550Y-139274733D01*
X96447739Y-139272457D01*
X96456427Y-139266189D01*
X96469769Y-139261523D01*
X96490752Y-139258227D01*
X96522363Y-139256068D01*
X96567590Y-139254814D01*
X96629420Y-139254231D01*
X96710839Y-139254089D01*
X96957445Y-139254089D01*
X96957445Y-139096045D01*
X96795006Y-139096045D01*
X96759338Y-139095964D01*
X96703568Y-139095167D01*
X96664430Y-139093162D01*
X96637976Y-139089521D01*
X96620259Y-139083812D01*
X96607329Y-139075607D01*
X96603686Y-139072423D01*
X96585278Y-139041448D01*
X96584644Y-139005112D01*
X96602183Y-138971493D01*
X96602245Y-138971424D01*
X96611916Y-138962798D01*
X96625209Y-138956742D01*
X96645917Y-138952811D01*
X96677828Y-138950556D01*
X96724734Y-138949531D01*
X96790424Y-138949289D01*
X96958571Y-138949289D01*
X96955186Y-138884378D01*
X96951800Y-138819467D01*
X96709723Y-138816414D01*
X96684707Y-138816086D01*
X96603087Y-138814606D01*
X96540768Y-138812222D01*
X96495154Y-138808227D01*
X96463652Y-138801913D01*
X96443667Y-138792574D01*
X96432604Y-138779503D01*
X96427869Y-138761992D01*
X96426867Y-138739335D01*
X96426873Y-138736970D01*
X96428027Y-138716939D01*
X96432824Y-138701146D01*
X96443632Y-138689090D01*
X96462817Y-138680267D01*
X96492745Y-138674175D01*
X96535783Y-138670311D01*
X96594299Y-138668174D01*
X96670657Y-138667260D01*
X96767226Y-138667067D01*
X97057406Y-138667067D01*
X97080803Y-138696811D01*
G36*
X97080803Y-138696811D02*
G01*
X97085752Y-138703495D01*
X97091596Y-138714066D01*
X97096057Y-138728153D01*
X97099321Y-138748478D01*
X97101574Y-138777765D01*
X97103002Y-138818737D01*
X97103792Y-138874117D01*
X97104129Y-138946628D01*
X97104200Y-139038994D01*
X97104171Y-139104911D01*
X97103939Y-139183228D01*
X97103319Y-139243496D01*
X97102126Y-139288393D01*
X97100179Y-139320602D01*
X97097294Y-139342800D01*
X97093288Y-139357669D01*
X97087979Y-139367889D01*
X97081183Y-139376138D01*
X97076668Y-139380795D01*
X97068438Y-139387282D01*
X97057078Y-139392194D01*
X97039810Y-139395749D01*
X97013855Y-139398167D01*
X96976436Y-139399667D01*
X96924773Y-139400467D01*
X96856089Y-139400787D01*
X96767606Y-139400845D01*
X96747931Y-139400838D01*
X96660906Y-139400572D01*
X96593254Y-139399806D01*
X96542299Y-139398392D01*
X96505367Y-139396180D01*
X96479783Y-139393022D01*
X96462871Y-139388769D01*
X96451957Y-139383271D01*
X96441464Y-139373285D01*
X96428203Y-139342168D01*
X96429386Y-139306280D01*
X96445550Y-139274733D01*
X96447739Y-139272457D01*
X96456427Y-139266189D01*
X96469769Y-139261523D01*
X96490752Y-139258227D01*
X96522363Y-139256068D01*
X96567590Y-139254814D01*
X96629420Y-139254231D01*
X96710839Y-139254089D01*
X96957445Y-139254089D01*
X96957445Y-139096045D01*
X96795006Y-139096045D01*
X96759338Y-139095964D01*
X96703568Y-139095167D01*
X96664430Y-139093162D01*
X96637976Y-139089521D01*
X96620259Y-139083812D01*
X96607329Y-139075607D01*
X96603686Y-139072423D01*
X96585278Y-139041448D01*
X96584644Y-139005112D01*
X96602183Y-138971493D01*
X96602245Y-138971424D01*
X96611916Y-138962798D01*
X96625209Y-138956742D01*
X96645917Y-138952811D01*
X96677828Y-138950556D01*
X96724734Y-138949531D01*
X96790424Y-138949289D01*
X96958571Y-138949289D01*
X96955186Y-138884378D01*
X96951800Y-138819467D01*
X96709723Y-138816414D01*
X96684707Y-138816086D01*
X96603087Y-138814606D01*
X96540768Y-138812222D01*
X96495154Y-138808227D01*
X96463652Y-138801913D01*
X96443667Y-138792574D01*
X96432604Y-138779503D01*
X96427869Y-138761992D01*
X96426867Y-138739335D01*
X96426873Y-138736970D01*
X96428027Y-138716939D01*
X96432824Y-138701146D01*
X96443632Y-138689090D01*
X96462817Y-138680267D01*
X96492745Y-138674175D01*
X96535783Y-138670311D01*
X96594299Y-138668174D01*
X96670657Y-138667260D01*
X96767226Y-138667067D01*
X97057406Y-138667067D01*
X97080803Y-138696811D01*
G37*
X101757734Y-138667083D02*
X101834831Y-138667275D01*
X101893777Y-138667860D01*
X101937364Y-138669051D01*
X101968383Y-138671064D01*
X101989625Y-138674112D01*
X102003882Y-138678409D01*
X102013945Y-138684172D01*
X102022606Y-138691612D01*
X102024391Y-138693293D01*
X102031635Y-138700832D01*
X102037277Y-138709850D01*
X102041517Y-138722984D01*
X102044556Y-138742872D01*
X102046594Y-138772151D01*
X102047830Y-138813458D01*
X102048465Y-138869431D01*
X102048700Y-138942707D01*
X102048734Y-139035923D01*
X102048697Y-139108713D01*
X102048448Y-139186889D01*
X102047812Y-139247103D01*
X102046615Y-139291982D01*
X102044684Y-139324152D01*
X102041846Y-139346239D01*
X102037927Y-139360870D01*
X102032755Y-139370670D01*
X102026156Y-139378267D01*
X102022822Y-139381444D01*
X102014300Y-139387554D01*
X102002298Y-139392229D01*
X101984087Y-139395659D01*
X101956940Y-139398036D01*
X101918129Y-139399552D01*
X101864924Y-139400398D01*
X101794598Y-139400765D01*
X101704422Y-139400845D01*
X101662314Y-139400833D01*
X101581167Y-139400651D01*
X101518675Y-139400098D01*
X101472109Y-139398982D01*
X101438741Y-139397113D01*
X101415844Y-139394298D01*
X101400688Y-139390346D01*
X101390546Y-139385066D01*
X101382689Y-139378267D01*
X101367963Y-139356667D01*
X101360111Y-139327467D01*
X101365610Y-139303560D01*
X101382689Y-139276667D01*
X101387668Y-139272059D01*
X101397443Y-139265772D01*
X101411559Y-139261146D01*
X101433054Y-139257930D01*
X101464968Y-139255870D01*
X101510342Y-139254712D01*
X101572213Y-139254202D01*
X101653622Y-139254089D01*
X101901978Y-139254089D01*
X101901978Y-139096045D01*
X101740801Y-139096045D01*
X101704983Y-139095899D01*
X101639359Y-139094176D01*
X101592118Y-139089741D01*
X101560383Y-139081637D01*
X101541277Y-139068906D01*
X101531923Y-139050592D01*
X101529445Y-139025738D01*
X101530242Y-139005482D01*
X101535494Y-138983656D01*
X101548288Y-138968304D01*
X101571628Y-138958309D01*
X101608517Y-138952553D01*
X101661959Y-138949919D01*
X101734958Y-138949289D01*
X101903105Y-138949289D01*
X101899719Y-138884378D01*
X101896334Y-138819467D01*
X101648617Y-138816418D01*
X101586026Y-138815539D01*
X101517565Y-138814095D01*
X101466661Y-138812164D01*
X101430408Y-138809514D01*
X101405901Y-138805910D01*
X101390235Y-138801121D01*
X101380506Y-138794913D01*
X101374491Y-138788510D01*
X101361482Y-138756828D01*
X101365043Y-138721142D01*
X101384818Y-138690084D01*
X101388069Y-138687161D01*
X101397049Y-138680810D01*
X101409153Y-138675957D01*
X101427159Y-138672403D01*
X101453847Y-138669946D01*
X101491997Y-138668385D01*
X101544386Y-138667518D01*
X101613794Y-138667146D01*
X101703001Y-138667067D01*
X101757734Y-138667083D01*
G36*
X101757734Y-138667083D02*
G01*
X101834831Y-138667275D01*
X101893777Y-138667860D01*
X101937364Y-138669051D01*
X101968383Y-138671064D01*
X101989625Y-138674112D01*
X102003882Y-138678409D01*
X102013945Y-138684172D01*
X102022606Y-138691612D01*
X102024391Y-138693293D01*
X102031635Y-138700832D01*
X102037277Y-138709850D01*
X102041517Y-138722984D01*
X102044556Y-138742872D01*
X102046594Y-138772151D01*
X102047830Y-138813458D01*
X102048465Y-138869431D01*
X102048700Y-138942707D01*
X102048734Y-139035923D01*
X102048697Y-139108713D01*
X102048448Y-139186889D01*
X102047812Y-139247103D01*
X102046615Y-139291982D01*
X102044684Y-139324152D01*
X102041846Y-139346239D01*
X102037927Y-139360870D01*
X102032755Y-139370670D01*
X102026156Y-139378267D01*
X102022822Y-139381444D01*
X102014300Y-139387554D01*
X102002298Y-139392229D01*
X101984087Y-139395659D01*
X101956940Y-139398036D01*
X101918129Y-139399552D01*
X101864924Y-139400398D01*
X101794598Y-139400765D01*
X101704422Y-139400845D01*
X101662314Y-139400833D01*
X101581167Y-139400651D01*
X101518675Y-139400098D01*
X101472109Y-139398982D01*
X101438741Y-139397113D01*
X101415844Y-139394298D01*
X101400688Y-139390346D01*
X101390546Y-139385066D01*
X101382689Y-139378267D01*
X101367963Y-139356667D01*
X101360111Y-139327467D01*
X101365610Y-139303560D01*
X101382689Y-139276667D01*
X101387668Y-139272059D01*
X101397443Y-139265772D01*
X101411559Y-139261146D01*
X101433054Y-139257930D01*
X101464968Y-139255870D01*
X101510342Y-139254712D01*
X101572213Y-139254202D01*
X101653622Y-139254089D01*
X101901978Y-139254089D01*
X101901978Y-139096045D01*
X101740801Y-139096045D01*
X101704983Y-139095899D01*
X101639359Y-139094176D01*
X101592118Y-139089741D01*
X101560383Y-139081637D01*
X101541277Y-139068906D01*
X101531923Y-139050592D01*
X101529445Y-139025738D01*
X101530242Y-139005482D01*
X101535494Y-138983656D01*
X101548288Y-138968304D01*
X101571628Y-138958309D01*
X101608517Y-138952553D01*
X101661959Y-138949919D01*
X101734958Y-138949289D01*
X101903105Y-138949289D01*
X101899719Y-138884378D01*
X101896334Y-138819467D01*
X101648617Y-138816418D01*
X101586026Y-138815539D01*
X101517565Y-138814095D01*
X101466661Y-138812164D01*
X101430408Y-138809514D01*
X101405901Y-138805910D01*
X101390235Y-138801121D01*
X101380506Y-138794913D01*
X101374491Y-138788510D01*
X101361482Y-138756828D01*
X101365043Y-138721142D01*
X101384818Y-138690084D01*
X101388069Y-138687161D01*
X101397049Y-138680810D01*
X101409153Y-138675957D01*
X101427159Y-138672403D01*
X101453847Y-138669946D01*
X101491997Y-138668385D01*
X101544386Y-138667518D01*
X101613794Y-138667146D01*
X101703001Y-138667067D01*
X101757734Y-138667083D01*
G37*
X93190702Y-138676478D02*
X93208663Y-138694989D01*
X93229263Y-138726071D01*
X93254095Y-138771756D01*
X93284750Y-138834078D01*
X93322820Y-138915071D01*
X93337454Y-138946454D01*
X93367203Y-139009638D01*
X93393297Y-139064244D01*
X93414292Y-139107290D01*
X93428739Y-139135793D01*
X93435191Y-139146770D01*
X93436550Y-139146189D01*
X93446542Y-139132242D01*
X93463833Y-139102704D01*
X93486430Y-139061087D01*
X93512338Y-139010903D01*
X93528311Y-138979414D01*
X93557261Y-138924061D01*
X93579749Y-138885044D01*
X93597965Y-138859566D01*
X93614096Y-138844831D01*
X93630330Y-138838042D01*
X93648857Y-138836400D01*
X93659360Y-138836875D01*
X93675476Y-138841082D01*
X93690790Y-138851946D01*
X93707388Y-138872219D01*
X93727357Y-138904654D01*
X93752783Y-138952004D01*
X93785752Y-139017022D01*
X93795485Y-139036277D01*
X93819943Y-139082946D01*
X93840178Y-139119109D01*
X93854311Y-139141497D01*
X93860460Y-139146845D01*
X93861827Y-139143573D01*
X93871202Y-139122664D01*
X93888062Y-139085725D01*
X93910979Y-139035874D01*
X93938520Y-138976226D01*
X93969255Y-138909898D01*
X93995970Y-138852677D01*
X94025593Y-138790688D01*
X94048664Y-138744949D01*
X94066643Y-138712908D01*
X94080990Y-138692014D01*
X94093166Y-138679718D01*
X94104632Y-138673466D01*
X94114042Y-138670574D01*
X94139147Y-138670425D01*
X94166290Y-138685768D01*
X94167590Y-138686753D01*
X94189674Y-138709388D01*
X94200723Y-138731613D01*
X94200769Y-138732253D01*
X94196228Y-138749915D01*
X94183364Y-138784481D01*
X94163605Y-138832826D01*
X94138381Y-138891825D01*
X94109119Y-138958355D01*
X94077250Y-139029291D01*
X94044201Y-139101507D01*
X94011401Y-139171880D01*
X93980280Y-139237285D01*
X93952265Y-139294597D01*
X93928786Y-139340692D01*
X93911272Y-139372446D01*
X93901151Y-139386733D01*
X93866743Y-139400102D01*
X93825046Y-139393741D01*
X93819681Y-139389044D01*
X93803852Y-139366893D01*
X93781650Y-139330132D01*
X93755233Y-139282415D01*
X93726760Y-139227393D01*
X93646986Y-139068150D01*
X93573799Y-139214742D01*
X93564103Y-139234032D01*
X93537125Y-139286380D01*
X93513096Y-139331170D01*
X93494332Y-139364154D01*
X93483146Y-139381089D01*
X93482000Y-139382332D01*
X93453879Y-139397619D01*
X93418817Y-139399302D01*
X93387776Y-139386733D01*
X93385350Y-139383884D01*
X93373090Y-139363259D01*
X93353352Y-139325708D01*
X93327448Y-139273880D01*
X93296685Y-139210423D01*
X93262375Y-139137985D01*
X93225825Y-139059216D01*
X93205585Y-139015093D01*
X93168812Y-138934365D01*
X93140355Y-138870687D01*
X93119331Y-138821752D01*
X93104854Y-138785257D01*
X93096039Y-138758895D01*
X93092004Y-138740361D01*
X93091862Y-138727352D01*
X93094730Y-138717561D01*
X93109387Y-138696678D01*
X93135990Y-138676377D01*
X93136745Y-138676035D01*
X93156335Y-138669034D01*
X93173790Y-138668504D01*
X93190702Y-138676478D01*
G36*
X93190702Y-138676478D02*
G01*
X93208663Y-138694989D01*
X93229263Y-138726071D01*
X93254095Y-138771756D01*
X93284750Y-138834078D01*
X93322820Y-138915071D01*
X93337454Y-138946454D01*
X93367203Y-139009638D01*
X93393297Y-139064244D01*
X93414292Y-139107290D01*
X93428739Y-139135793D01*
X93435191Y-139146770D01*
X93436550Y-139146189D01*
X93446542Y-139132242D01*
X93463833Y-139102704D01*
X93486430Y-139061087D01*
X93512338Y-139010903D01*
X93528311Y-138979414D01*
X93557261Y-138924061D01*
X93579749Y-138885044D01*
X93597965Y-138859566D01*
X93614096Y-138844831D01*
X93630330Y-138838042D01*
X93648857Y-138836400D01*
X93659360Y-138836875D01*
X93675476Y-138841082D01*
X93690790Y-138851946D01*
X93707388Y-138872219D01*
X93727357Y-138904654D01*
X93752783Y-138952004D01*
X93785752Y-139017022D01*
X93795485Y-139036277D01*
X93819943Y-139082946D01*
X93840178Y-139119109D01*
X93854311Y-139141497D01*
X93860460Y-139146845D01*
X93861827Y-139143573D01*
X93871202Y-139122664D01*
X93888062Y-139085725D01*
X93910979Y-139035874D01*
X93938520Y-138976226D01*
X93969255Y-138909898D01*
X93995970Y-138852677D01*
X94025593Y-138790688D01*
X94048664Y-138744949D01*
X94066643Y-138712908D01*
X94080990Y-138692014D01*
X94093166Y-138679718D01*
X94104632Y-138673466D01*
X94114042Y-138670574D01*
X94139147Y-138670425D01*
X94166290Y-138685768D01*
X94167590Y-138686753D01*
X94189674Y-138709388D01*
X94200723Y-138731613D01*
X94200769Y-138732253D01*
X94196228Y-138749915D01*
X94183364Y-138784481D01*
X94163605Y-138832826D01*
X94138381Y-138891825D01*
X94109119Y-138958355D01*
X94077250Y-139029291D01*
X94044201Y-139101507D01*
X94011401Y-139171880D01*
X93980280Y-139237285D01*
X93952265Y-139294597D01*
X93928786Y-139340692D01*
X93911272Y-139372446D01*
X93901151Y-139386733D01*
X93866743Y-139400102D01*
X93825046Y-139393741D01*
X93819681Y-139389044D01*
X93803852Y-139366893D01*
X93781650Y-139330132D01*
X93755233Y-139282415D01*
X93726760Y-139227393D01*
X93646986Y-139068150D01*
X93573799Y-139214742D01*
X93564103Y-139234032D01*
X93537125Y-139286380D01*
X93513096Y-139331170D01*
X93494332Y-139364154D01*
X93483146Y-139381089D01*
X93482000Y-139382332D01*
X93453879Y-139397619D01*
X93418817Y-139399302D01*
X93387776Y-139386733D01*
X93385350Y-139383884D01*
X93373090Y-139363259D01*
X93353352Y-139325708D01*
X93327448Y-139273880D01*
X93296685Y-139210423D01*
X93262375Y-139137985D01*
X93225825Y-139059216D01*
X93205585Y-139015093D01*
X93168812Y-138934365D01*
X93140355Y-138870687D01*
X93119331Y-138821752D01*
X93104854Y-138785257D01*
X93096039Y-138758895D01*
X93092004Y-138740361D01*
X93091862Y-138727352D01*
X93094730Y-138717561D01*
X93109387Y-138696678D01*
X93135990Y-138676377D01*
X93136745Y-138676035D01*
X93156335Y-138669034D01*
X93173790Y-138668504D01*
X93190702Y-138676478D01*
G37*
X100741853Y-138667936D02*
X100808100Y-138673366D01*
X100863400Y-138682964D01*
X100914283Y-138697825D01*
X100985595Y-138730958D01*
X101036752Y-138773640D01*
X101067575Y-138825705D01*
X101077889Y-138886983D01*
X101076952Y-138918232D01*
X101071160Y-138943029D01*
X101056353Y-138964699D01*
X101028380Y-138992049D01*
X101020402Y-138999378D01*
X100996692Y-139020281D01*
X100974298Y-139037251D01*
X100950265Y-139051205D01*
X100921637Y-139063056D01*
X100885460Y-139073720D01*
X100838780Y-139084111D01*
X100778641Y-139095146D01*
X100702090Y-139107738D01*
X100606171Y-139122804D01*
X100587808Y-139125838D01*
X100525478Y-139139458D01*
X100480260Y-139155192D01*
X100453976Y-139172263D01*
X100448447Y-139189897D01*
X100451068Y-139194168D01*
X100469000Y-139209233D01*
X100497126Y-139225867D01*
X100509926Y-139231857D01*
X100531224Y-139239050D01*
X100557610Y-139243827D01*
X100593454Y-139246646D01*
X100643128Y-139247964D01*
X100711000Y-139248237D01*
X100728785Y-139248164D01*
X100796406Y-139247053D01*
X100861345Y-139244828D01*
X100916970Y-139241762D01*
X100956651Y-139238127D01*
X100992162Y-139234059D01*
X101021415Y-139233276D01*
X101040315Y-139237876D01*
X101055429Y-139248551D01*
X101059085Y-139252144D01*
X101075427Y-139283918D01*
X101074107Y-139319572D01*
X101055150Y-139350190D01*
X101034780Y-139361796D01*
X100998796Y-139374491D01*
X100956372Y-139384541D01*
X100952922Y-139385140D01*
X100910252Y-139390356D01*
X100852866Y-139394730D01*
X100787849Y-139397818D01*
X100722289Y-139399177D01*
X100706057Y-139399218D01*
X100607744Y-139396741D01*
X100527692Y-139388735D01*
X100462513Y-139374203D01*
X100408817Y-139352149D01*
X100363216Y-139321576D01*
X100322323Y-139281486D01*
X100302202Y-139255259D01*
X100290576Y-139225712D01*
X100287667Y-139185995D01*
X100287808Y-139174026D01*
X100291681Y-139141345D01*
X100304065Y-139114819D01*
X100329230Y-139083971D01*
X100350442Y-139061831D01*
X100376838Y-139039285D01*
X100406555Y-139020917D01*
X100442785Y-139005661D01*
X100488717Y-138992449D01*
X100547544Y-138980214D01*
X100622456Y-138967889D01*
X100716645Y-138954406D01*
X100761957Y-138947396D01*
X100829911Y-138932837D01*
X100879047Y-138916337D01*
X100908614Y-138898439D01*
X100917864Y-138879685D01*
X100906048Y-138860615D01*
X100872416Y-138841771D01*
X100869370Y-138840557D01*
X100823011Y-138828479D01*
X100760361Y-138820279D01*
X100686927Y-138816119D01*
X100608217Y-138816161D01*
X100529739Y-138820569D01*
X100457000Y-138829505D01*
X100453073Y-138830154D01*
X100404257Y-138837861D01*
X100372005Y-138841473D01*
X100351008Y-138840876D01*
X100335954Y-138835954D01*
X100321534Y-138826596D01*
X100320364Y-138825725D01*
X100295847Y-138795351D01*
X100291054Y-138759850D01*
X100306860Y-138725269D01*
X100311406Y-138720813D01*
X100341020Y-138705673D01*
X100388002Y-138692550D01*
X100448306Y-138681750D01*
X100517888Y-138673581D01*
X100592703Y-138668351D01*
X100668706Y-138666367D01*
X100741853Y-138667936D01*
G36*
X100741853Y-138667936D02*
G01*
X100808100Y-138673366D01*
X100863400Y-138682964D01*
X100914283Y-138697825D01*
X100985595Y-138730958D01*
X101036752Y-138773640D01*
X101067575Y-138825705D01*
X101077889Y-138886983D01*
X101076952Y-138918232D01*
X101071160Y-138943029D01*
X101056353Y-138964699D01*
X101028380Y-138992049D01*
X101020402Y-138999378D01*
X100996692Y-139020281D01*
X100974298Y-139037251D01*
X100950265Y-139051205D01*
X100921637Y-139063056D01*
X100885460Y-139073720D01*
X100838780Y-139084111D01*
X100778641Y-139095146D01*
X100702090Y-139107738D01*
X100606171Y-139122804D01*
X100587808Y-139125838D01*
X100525478Y-139139458D01*
X100480260Y-139155192D01*
X100453976Y-139172263D01*
X100448447Y-139189897D01*
X100451068Y-139194168D01*
X100469000Y-139209233D01*
X100497126Y-139225867D01*
X100509926Y-139231857D01*
X100531224Y-139239050D01*
X100557610Y-139243827D01*
X100593454Y-139246646D01*
X100643128Y-139247964D01*
X100711000Y-139248237D01*
X100728785Y-139248164D01*
X100796406Y-139247053D01*
X100861345Y-139244828D01*
X100916970Y-139241762D01*
X100956651Y-139238127D01*
X100992162Y-139234059D01*
X101021415Y-139233276D01*
X101040315Y-139237876D01*
X101055429Y-139248551D01*
X101059085Y-139252144D01*
X101075427Y-139283918D01*
X101074107Y-139319572D01*
X101055150Y-139350190D01*
X101034780Y-139361796D01*
X100998796Y-139374491D01*
X100956372Y-139384541D01*
X100952922Y-139385140D01*
X100910252Y-139390356D01*
X100852866Y-139394730D01*
X100787849Y-139397818D01*
X100722289Y-139399177D01*
X100706057Y-139399218D01*
X100607744Y-139396741D01*
X100527692Y-139388735D01*
X100462513Y-139374203D01*
X100408817Y-139352149D01*
X100363216Y-139321576D01*
X100322323Y-139281486D01*
X100302202Y-139255259D01*
X100290576Y-139225712D01*
X100287667Y-139185995D01*
X100287808Y-139174026D01*
X100291681Y-139141345D01*
X100304065Y-139114819D01*
X100329230Y-139083971D01*
X100350442Y-139061831D01*
X100376838Y-139039285D01*
X100406555Y-139020917D01*
X100442785Y-139005661D01*
X100488717Y-138992449D01*
X100547544Y-138980214D01*
X100622456Y-138967889D01*
X100716645Y-138954406D01*
X100761957Y-138947396D01*
X100829911Y-138932837D01*
X100879047Y-138916337D01*
X100908614Y-138898439D01*
X100917864Y-138879685D01*
X100906048Y-138860615D01*
X100872416Y-138841771D01*
X100869370Y-138840557D01*
X100823011Y-138828479D01*
X100760361Y-138820279D01*
X100686927Y-138816119D01*
X100608217Y-138816161D01*
X100529739Y-138820569D01*
X100457000Y-138829505D01*
X100453073Y-138830154D01*
X100404257Y-138837861D01*
X100372005Y-138841473D01*
X100351008Y-138840876D01*
X100335954Y-138835954D01*
X100321534Y-138826596D01*
X100320364Y-138825725D01*
X100295847Y-138795351D01*
X100291054Y-138759850D01*
X100306860Y-138725269D01*
X100311406Y-138720813D01*
X100341020Y-138705673D01*
X100388002Y-138692550D01*
X100448306Y-138681750D01*
X100517888Y-138673581D01*
X100592703Y-138668351D01*
X100668706Y-138666367D01*
X100741853Y-138667936D01*
G37*
X96889711Y-134360033D02*
X96985268Y-134377523D01*
X97149558Y-134422564D01*
X97303589Y-134485656D01*
X97449509Y-134567915D01*
X97589466Y-134670457D01*
X97725608Y-134794399D01*
X97769473Y-134839661D01*
X97881758Y-134971865D01*
X97974972Y-135109832D01*
X98051719Y-135257750D01*
X98114603Y-135419803D01*
X98118420Y-135431391D01*
X98168507Y-135617392D01*
X98201899Y-135813521D01*
X98218584Y-136015568D01*
X98218551Y-136219325D01*
X98201791Y-136420581D01*
X98168292Y-136615128D01*
X98118044Y-136798756D01*
X98074190Y-136916053D01*
X97996348Y-137078951D01*
X97902828Y-137232866D01*
X97795822Y-137374671D01*
X97677519Y-137501239D01*
X97550111Y-137609441D01*
X97472606Y-137662120D01*
X97345725Y-137731750D01*
X97208243Y-137790468D01*
X97066716Y-137835587D01*
X96927702Y-137864422D01*
X96913597Y-137866106D01*
X96870153Y-137869434D01*
X96812723Y-137872275D01*
X96747122Y-137874373D01*
X96679167Y-137875468D01*
X96552378Y-137873140D01*
X96404673Y-137860136D01*
X96266779Y-137835133D01*
X96133014Y-137797318D01*
X96109562Y-137788889D01*
X96061612Y-137769408D01*
X96005140Y-137744473D01*
X95943379Y-137715722D01*
X95879563Y-137684790D01*
X95816926Y-137653315D01*
X95758703Y-137622934D01*
X95708127Y-137595283D01*
X95668433Y-137571999D01*
X95642854Y-137554718D01*
X95634625Y-137545079D01*
X95636076Y-137541984D01*
X95647250Y-137522079D01*
X95668134Y-137486420D01*
X95697265Y-137437459D01*
X95733181Y-137377646D01*
X95774420Y-137309433D01*
X95819517Y-137235271D01*
X96000785Y-136938008D01*
X96047315Y-136982539D01*
X96138723Y-137060865D01*
X96252334Y-137135439D01*
X96370122Y-137189474D01*
X96490559Y-137222290D01*
X96612117Y-137233211D01*
X96653585Y-137231868D01*
X96771080Y-137213612D01*
X96881089Y-137174617D01*
X96982430Y-137115670D01*
X97073921Y-137037557D01*
X97154380Y-136941064D01*
X97222627Y-136826978D01*
X97238908Y-136792724D01*
X97284982Y-136669240D01*
X97320106Y-136530918D01*
X97344197Y-136381561D01*
X97357173Y-136224973D01*
X97358949Y-136064956D01*
X97349443Y-135905314D01*
X97328572Y-135749850D01*
X97296252Y-135602366D01*
X97252399Y-135466667D01*
X97214982Y-135380076D01*
X97150185Y-135266688D01*
X97074772Y-135173070D01*
X96988418Y-135098959D01*
X96890795Y-135044094D01*
X96781577Y-135008212D01*
X96660439Y-134991051D01*
X96591038Y-134989880D01*
X96468168Y-135004141D01*
X96352664Y-135039241D01*
X96245953Y-135094682D01*
X96149464Y-135169964D01*
X96133720Y-135184440D01*
X96103150Y-135210962D01*
X96080809Y-135228138D01*
X96070691Y-135232787D01*
X96068706Y-135230597D01*
X96054241Y-135211721D01*
X96030400Y-135178397D01*
X95999029Y-135133380D01*
X95961974Y-135079425D01*
X95921083Y-135019285D01*
X95878202Y-134955718D01*
X95835178Y-134891476D01*
X95793857Y-134829315D01*
X95756086Y-134771991D01*
X95723712Y-134722257D01*
X95698582Y-134682868D01*
X95682542Y-134656580D01*
X95677439Y-134646147D01*
X95682050Y-134641941D01*
X95701267Y-134636933D01*
X95710838Y-134634386D01*
X95738809Y-134623249D01*
X95780448Y-134604802D01*
X95831995Y-134580725D01*
X95889690Y-134552699D01*
X95900957Y-134547154D01*
X96078687Y-134467889D01*
X96248490Y-134408385D01*
X96412430Y-134368245D01*
X96572571Y-134347071D01*
X96730977Y-134344466D01*
X96889711Y-134360033D01*
G36*
X96889711Y-134360033D02*
G01*
X96985268Y-134377523D01*
X97149558Y-134422564D01*
X97303589Y-134485656D01*
X97449509Y-134567915D01*
X97589466Y-134670457D01*
X97725608Y-134794399D01*
X97769473Y-134839661D01*
X97881758Y-134971865D01*
X97974972Y-135109832D01*
X98051719Y-135257750D01*
X98114603Y-135419803D01*
X98118420Y-135431391D01*
X98168507Y-135617392D01*
X98201899Y-135813521D01*
X98218584Y-136015568D01*
X98218551Y-136219325D01*
X98201791Y-136420581D01*
X98168292Y-136615128D01*
X98118044Y-136798756D01*
X98074190Y-136916053D01*
X97996348Y-137078951D01*
X97902828Y-137232866D01*
X97795822Y-137374671D01*
X97677519Y-137501239D01*
X97550111Y-137609441D01*
X97472606Y-137662120D01*
X97345725Y-137731750D01*
X97208243Y-137790468D01*
X97066716Y-137835587D01*
X96927702Y-137864422D01*
X96913597Y-137866106D01*
X96870153Y-137869434D01*
X96812723Y-137872275D01*
X96747122Y-137874373D01*
X96679167Y-137875468D01*
X96552378Y-137873140D01*
X96404673Y-137860136D01*
X96266779Y-137835133D01*
X96133014Y-137797318D01*
X96109562Y-137788889D01*
X96061612Y-137769408D01*
X96005140Y-137744473D01*
X95943379Y-137715722D01*
X95879563Y-137684790D01*
X95816926Y-137653315D01*
X95758703Y-137622934D01*
X95708127Y-137595283D01*
X95668433Y-137571999D01*
X95642854Y-137554718D01*
X95634625Y-137545079D01*
X95636076Y-137541984D01*
X95647250Y-137522079D01*
X95668134Y-137486420D01*
X95697265Y-137437459D01*
X95733181Y-137377646D01*
X95774420Y-137309433D01*
X95819517Y-137235271D01*
X96000785Y-136938008D01*
X96047315Y-136982539D01*
X96138723Y-137060865D01*
X96252334Y-137135439D01*
X96370122Y-137189474D01*
X96490559Y-137222290D01*
X96612117Y-137233211D01*
X96653585Y-137231868D01*
X96771080Y-137213612D01*
X96881089Y-137174617D01*
X96982430Y-137115670D01*
X97073921Y-137037557D01*
X97154380Y-136941064D01*
X97222627Y-136826978D01*
X97238908Y-136792724D01*
X97284982Y-136669240D01*
X97320106Y-136530918D01*
X97344197Y-136381561D01*
X97357173Y-136224973D01*
X97358949Y-136064956D01*
X97349443Y-135905314D01*
X97328572Y-135749850D01*
X97296252Y-135602366D01*
X97252399Y-135466667D01*
X97214982Y-135380076D01*
X97150185Y-135266688D01*
X97074772Y-135173070D01*
X96988418Y-135098959D01*
X96890795Y-135044094D01*
X96781577Y-135008212D01*
X96660439Y-134991051D01*
X96591038Y-134989880D01*
X96468168Y-135004141D01*
X96352664Y-135039241D01*
X96245953Y-135094682D01*
X96149464Y-135169964D01*
X96133720Y-135184440D01*
X96103150Y-135210962D01*
X96080809Y-135228138D01*
X96070691Y-135232787D01*
X96068706Y-135230597D01*
X96054241Y-135211721D01*
X96030400Y-135178397D01*
X95999029Y-135133380D01*
X95961974Y-135079425D01*
X95921083Y-135019285D01*
X95878202Y-134955718D01*
X95835178Y-134891476D01*
X95793857Y-134829315D01*
X95756086Y-134771991D01*
X95723712Y-134722257D01*
X95698582Y-134682868D01*
X95682542Y-134656580D01*
X95677439Y-134646147D01*
X95682050Y-134641941D01*
X95701267Y-134636933D01*
X95710838Y-134634386D01*
X95738809Y-134623249D01*
X95780448Y-134604802D01*
X95831995Y-134580725D01*
X95889690Y-134552699D01*
X95900957Y-134547154D01*
X96078687Y-134467889D01*
X96248490Y-134408385D01*
X96412430Y-134368245D01*
X96572571Y-134347071D01*
X96730977Y-134344466D01*
X96889711Y-134360033D01*
G37*
X93086994Y-136640711D02*
X93086268Y-136718158D01*
X93077689Y-136869594D01*
X93058833Y-137006283D01*
X93028837Y-137132276D01*
X92986836Y-137251625D01*
X92931969Y-137368381D01*
X92865167Y-137479179D01*
X92774363Y-137592739D01*
X92670708Y-137688211D01*
X92554887Y-137765073D01*
X92427586Y-137822797D01*
X92289489Y-137860858D01*
X92251793Y-137866666D01*
X92172752Y-137872396D01*
X92084629Y-137872583D01*
X91995236Y-137867539D01*
X91912384Y-137857578D01*
X91843887Y-137843012D01*
X91813035Y-137833364D01*
X91735730Y-137803123D01*
X91658679Y-137765617D01*
X91589200Y-137724614D01*
X91534615Y-137683879D01*
X91511916Y-137664505D01*
X91489201Y-137646662D01*
X91477779Y-137639778D01*
X91476537Y-137641424D01*
X91473728Y-137659205D01*
X91471776Y-137692370D01*
X91471045Y-137735733D01*
X91471045Y-137831689D01*
X90612896Y-137831689D01*
X90647161Y-137770974D01*
X90652355Y-137761868D01*
X90660715Y-137747249D01*
X90668288Y-137733173D01*
X90675112Y-137718540D01*
X90681227Y-137702249D01*
X90686673Y-137683198D01*
X90691487Y-137660286D01*
X90695708Y-137632413D01*
X90699377Y-137598478D01*
X90702531Y-137557379D01*
X90705211Y-137508015D01*
X90707454Y-137449286D01*
X90709299Y-137380090D01*
X90710787Y-137299326D01*
X90711955Y-137205894D01*
X90712844Y-137098692D01*
X90713491Y-136976620D01*
X90713936Y-136838576D01*
X90714218Y-136683459D01*
X90714375Y-136510168D01*
X90714448Y-136317603D01*
X90714474Y-136104662D01*
X90714485Y-135968530D01*
X91516200Y-135968530D01*
X91516200Y-137118721D01*
X91586756Y-137165089D01*
X91627417Y-137188791D01*
X91681546Y-137214639D01*
X91730689Y-137232829D01*
X91794165Y-137248551D01*
X91890331Y-137259541D01*
X91974900Y-137251365D01*
X92048219Y-137223805D01*
X92110637Y-137176642D01*
X92162502Y-137109658D01*
X92204160Y-137022633D01*
X92235962Y-136915350D01*
X92238545Y-136903009D01*
X92247000Y-136841772D01*
X92252663Y-136764692D01*
X92255576Y-136677002D01*
X92255783Y-136583934D01*
X92253330Y-136490720D01*
X92248261Y-136402594D01*
X92240619Y-136324788D01*
X92230448Y-136262533D01*
X92229167Y-136256666D01*
X92200126Y-136146121D01*
X92165610Y-136055575D01*
X92124456Y-135982953D01*
X92075499Y-135926181D01*
X92017574Y-135883184D01*
X91985620Y-135867615D01*
X91912784Y-135848722D01*
X91831443Y-135845465D01*
X91746319Y-135857389D01*
X91662133Y-135884040D01*
X91583608Y-135924962D01*
X91516200Y-135968530D01*
X90714485Y-135968530D01*
X90714493Y-135870245D01*
X90714689Y-134185378D01*
X91620017Y-134185378D01*
X91595585Y-134222067D01*
X91589318Y-134231647D01*
X91563208Y-134277981D01*
X91545469Y-134325102D01*
X91533908Y-134380251D01*
X91526331Y-134450667D01*
X91525839Y-134457650D01*
X91524062Y-134495641D01*
X91522444Y-134549576D01*
X91520999Y-134616703D01*
X91519740Y-134694271D01*
X91518680Y-134779528D01*
X91517829Y-134869724D01*
X91517203Y-134962107D01*
X91516812Y-135053925D01*
X91516670Y-135142427D01*
X91516790Y-135224862D01*
X91517183Y-135298479D01*
X91517862Y-135360526D01*
X91518841Y-135408251D01*
X91520132Y-135438904D01*
X91521747Y-135449733D01*
X91529957Y-135445333D01*
X91551647Y-135430362D01*
X91581014Y-135408448D01*
X91629879Y-135374236D01*
X91718125Y-135327714D01*
X91816916Y-135294046D01*
X91929510Y-135272231D01*
X92059164Y-135261265D01*
X92151670Y-135260219D01*
X92273011Y-135270014D01*
X92383099Y-135294174D01*
X92486389Y-135333785D01*
X92587338Y-135389932D01*
X92632503Y-135420883D01*
X92737911Y-135512115D01*
X92829538Y-135621106D01*
X92907332Y-135747726D01*
X92971241Y-135891845D01*
X93021214Y-136053332D01*
X93057198Y-136232059D01*
X93079143Y-136427895D01*
X93084900Y-136583934D01*
X93086994Y-136640711D01*
G36*
X93086994Y-136640711D02*
G01*
X93086268Y-136718158D01*
X93077689Y-136869594D01*
X93058833Y-137006283D01*
X93028837Y-137132276D01*
X92986836Y-137251625D01*
X92931969Y-137368381D01*
X92865167Y-137479179D01*
X92774363Y-137592739D01*
X92670708Y-137688211D01*
X92554887Y-137765073D01*
X92427586Y-137822797D01*
X92289489Y-137860858D01*
X92251793Y-137866666D01*
X92172752Y-137872396D01*
X92084629Y-137872583D01*
X91995236Y-137867539D01*
X91912384Y-137857578D01*
X91843887Y-137843012D01*
X91813035Y-137833364D01*
X91735730Y-137803123D01*
X91658679Y-137765617D01*
X91589200Y-137724614D01*
X91534615Y-137683879D01*
X91511916Y-137664505D01*
X91489201Y-137646662D01*
X91477779Y-137639778D01*
X91476537Y-137641424D01*
X91473728Y-137659205D01*
X91471776Y-137692370D01*
X91471045Y-137735733D01*
X91471045Y-137831689D01*
X90612896Y-137831689D01*
X90647161Y-137770974D01*
X90652355Y-137761868D01*
X90660715Y-137747249D01*
X90668288Y-137733173D01*
X90675112Y-137718540D01*
X90681227Y-137702249D01*
X90686673Y-137683198D01*
X90691487Y-137660286D01*
X90695708Y-137632413D01*
X90699377Y-137598478D01*
X90702531Y-137557379D01*
X90705211Y-137508015D01*
X90707454Y-137449286D01*
X90709299Y-137380090D01*
X90710787Y-137299326D01*
X90711955Y-137205894D01*
X90712844Y-137098692D01*
X90713491Y-136976620D01*
X90713936Y-136838576D01*
X90714218Y-136683459D01*
X90714375Y-136510168D01*
X90714448Y-136317603D01*
X90714474Y-136104662D01*
X90714485Y-135968530D01*
X91516200Y-135968530D01*
X91516200Y-137118721D01*
X91586756Y-137165089D01*
X91627417Y-137188791D01*
X91681546Y-137214639D01*
X91730689Y-137232829D01*
X91794165Y-137248551D01*
X91890331Y-137259541D01*
X91974900Y-137251365D01*
X92048219Y-137223805D01*
X92110637Y-137176642D01*
X92162502Y-137109658D01*
X92204160Y-137022633D01*
X92235962Y-136915350D01*
X92238545Y-136903009D01*
X92247000Y-136841772D01*
X92252663Y-136764692D01*
X92255576Y-136677002D01*
X92255783Y-136583934D01*
X92253330Y-136490720D01*
X92248261Y-136402594D01*
X92240619Y-136324788D01*
X92230448Y-136262533D01*
X92229167Y-136256666D01*
X92200126Y-136146121D01*
X92165610Y-136055575D01*
X92124456Y-135982953D01*
X92075499Y-135926181D01*
X92017574Y-135883184D01*
X91985620Y-135867615D01*
X91912784Y-135848722D01*
X91831443Y-135845465D01*
X91746319Y-135857389D01*
X91662133Y-135884040D01*
X91583608Y-135924962D01*
X91516200Y-135968530D01*
X90714485Y-135968530D01*
X90714493Y-135870245D01*
X90714689Y-134185378D01*
X91620017Y-134185378D01*
X91595585Y-134222067D01*
X91589318Y-134231647D01*
X91563208Y-134277981D01*
X91545469Y-134325102D01*
X91533908Y-134380251D01*
X91526331Y-134450667D01*
X91525839Y-134457650D01*
X91524062Y-134495641D01*
X91522444Y-134549576D01*
X91520999Y-134616703D01*
X91519740Y-134694271D01*
X91518680Y-134779528D01*
X91517829Y-134869724D01*
X91517203Y-134962107D01*
X91516812Y-135053925D01*
X91516670Y-135142427D01*
X91516790Y-135224862D01*
X91517183Y-135298479D01*
X91517862Y-135360526D01*
X91518841Y-135408251D01*
X91520132Y-135438904D01*
X91521747Y-135449733D01*
X91529957Y-135445333D01*
X91551647Y-135430362D01*
X91581014Y-135408448D01*
X91629879Y-135374236D01*
X91718125Y-135327714D01*
X91816916Y-135294046D01*
X91929510Y-135272231D01*
X92059164Y-135261265D01*
X92151670Y-135260219D01*
X92273011Y-135270014D01*
X92383099Y-135294174D01*
X92486389Y-135333785D01*
X92587338Y-135389932D01*
X92632503Y-135420883D01*
X92737911Y-135512115D01*
X92829538Y-135621106D01*
X92907332Y-135747726D01*
X92971241Y-135891845D01*
X93021214Y-136053332D01*
X93057198Y-136232059D01*
X93079143Y-136427895D01*
X93084900Y-136583934D01*
X93086994Y-136640711D01*
G37*
X95628755Y-137041467D02*
X95628261Y-137075363D01*
X95624632Y-137150202D01*
X95617022Y-137212401D01*
X95604688Y-137268984D01*
X95560313Y-137395076D01*
X95497400Y-137509679D01*
X95417238Y-137610568D01*
X95320740Y-137696924D01*
X95208822Y-137767932D01*
X95082397Y-137822776D01*
X94942378Y-137860638D01*
X94906149Y-137866351D01*
X94827155Y-137872313D01*
X94738841Y-137872646D01*
X94649075Y-137867659D01*
X94565722Y-137857666D01*
X94496651Y-137842978D01*
X94410187Y-137812749D01*
X94300286Y-137758057D01*
X94202956Y-137690543D01*
X94140867Y-137639556D01*
X94137605Y-137735622D01*
X94134343Y-137831689D01*
X93711450Y-137831689D01*
X93700543Y-137831686D01*
X93606056Y-137831380D01*
X93519331Y-137830616D01*
X93442837Y-137829451D01*
X93379043Y-137827942D01*
X93330418Y-137826147D01*
X93299433Y-137824121D01*
X93288556Y-137821922D01*
X93288578Y-137821463D01*
X93295614Y-137805910D01*
X93311434Y-137783071D01*
X93315734Y-137777638D01*
X93326777Y-137763606D01*
X93336311Y-137750186D01*
X93344461Y-137735722D01*
X93351352Y-137718556D01*
X93357111Y-137697034D01*
X93361862Y-137669498D01*
X93365731Y-137634292D01*
X93368844Y-137589760D01*
X93371325Y-137534246D01*
X93373300Y-137466093D01*
X93374894Y-137383645D01*
X93376234Y-137285246D01*
X93377444Y-137169239D01*
X93378649Y-137033968D01*
X93379595Y-136922586D01*
X94180378Y-136922586D01*
X94180378Y-137118462D01*
X94225048Y-137174973D01*
X94237785Y-137190212D01*
X94284604Y-137232844D01*
X94345255Y-137268672D01*
X94355897Y-137273850D01*
X94394676Y-137290745D01*
X94429692Y-137300909D01*
X94469722Y-137306325D01*
X94523541Y-137308978D01*
X94541648Y-137309383D01*
X94617011Y-137306540D01*
X94677743Y-137294620D01*
X94729452Y-137272037D01*
X94777746Y-137237211D01*
X94782803Y-137232798D01*
X94831272Y-137177160D01*
X94859459Y-137113333D01*
X94868752Y-137038282D01*
X94861520Y-136966693D01*
X94836796Y-136903645D01*
X94792249Y-136845758D01*
X94737319Y-136798808D01*
X94664894Y-136758961D01*
X94578340Y-136731263D01*
X94475670Y-136715096D01*
X94354894Y-136709842D01*
X94346007Y-136709857D01*
X94290660Y-136710655D01*
X94243736Y-136712488D01*
X94209953Y-136715111D01*
X94194028Y-136718274D01*
X94189943Y-136724741D01*
X94185572Y-136746875D01*
X94182604Y-136785988D01*
X94180914Y-136843939D01*
X94180378Y-136922586D01*
X93379595Y-136922586D01*
X93379975Y-136877778D01*
X93381228Y-136735012D01*
X93382651Y-136589942D01*
X93384176Y-136464027D01*
X93385933Y-136355436D01*
X93388051Y-136262334D01*
X93390660Y-136182891D01*
X93393890Y-136115273D01*
X93397869Y-136057649D01*
X93402728Y-136008185D01*
X93408597Y-135965050D01*
X93415604Y-135926410D01*
X93423880Y-135890434D01*
X93433554Y-135855289D01*
X93444756Y-135819142D01*
X93457616Y-135780161D01*
X93473090Y-135737091D01*
X93515994Y-135644871D01*
X93569735Y-135565099D01*
X93638576Y-135490965D01*
X93716185Y-135427405D01*
X93820761Y-135365725D01*
X93940244Y-135318202D01*
X94075508Y-135284567D01*
X94227426Y-135264552D01*
X94396872Y-135257889D01*
X94454890Y-135258287D01*
X94520398Y-135260335D01*
X94581693Y-135264704D01*
X94643097Y-135272035D01*
X94708932Y-135282969D01*
X94783520Y-135298147D01*
X94871184Y-135318209D01*
X94976245Y-135343797D01*
X95004806Y-135350820D01*
X95080054Y-135368776D01*
X95150388Y-135384820D01*
X95211567Y-135398028D01*
X95259354Y-135407474D01*
X95289511Y-135412231D01*
X95317783Y-135415910D01*
X95344060Y-135421187D01*
X95354059Y-135425942D01*
X95350952Y-135434781D01*
X95340194Y-135462072D01*
X95322864Y-135504906D01*
X95300126Y-135560425D01*
X95273147Y-135625772D01*
X95243090Y-135698089D01*
X95236493Y-135713879D01*
X95197907Y-135804484D01*
X95166768Y-135874217D01*
X95142917Y-135923405D01*
X95126198Y-135952374D01*
X95116454Y-135961452D01*
X95108766Y-135959405D01*
X95082415Y-135949760D01*
X95043982Y-135934190D01*
X94998822Y-135914815D01*
X94904293Y-135876814D01*
X94767480Y-135835780D01*
X94626289Y-135810612D01*
X94588314Y-135806611D01*
X94485059Y-135804447D01*
X94397952Y-135817622D01*
X94326129Y-135846756D01*
X94268731Y-135892466D01*
X94224896Y-135955372D01*
X94193762Y-136036092D01*
X94174470Y-136135245D01*
X94167050Y-136194224D01*
X94328936Y-136187445D01*
X94455495Y-136185813D01*
X94606951Y-136192194D01*
X94755396Y-136206777D01*
X94891578Y-136228882D01*
X94956245Y-136243821D01*
X95088490Y-136286741D01*
X95210762Y-136343340D01*
X95320685Y-136412017D01*
X95415883Y-136491170D01*
X95493980Y-136579196D01*
X95552599Y-136674493D01*
X95576595Y-136726864D01*
X95602232Y-136797590D01*
X95618478Y-136868812D01*
X95626822Y-136947712D01*
X95628690Y-137038282D01*
X95628755Y-137041467D01*
G36*
X95628755Y-137041467D02*
G01*
X95628261Y-137075363D01*
X95624632Y-137150202D01*
X95617022Y-137212401D01*
X95604688Y-137268984D01*
X95560313Y-137395076D01*
X95497400Y-137509679D01*
X95417238Y-137610568D01*
X95320740Y-137696924D01*
X95208822Y-137767932D01*
X95082397Y-137822776D01*
X94942378Y-137860638D01*
X94906149Y-137866351D01*
X94827155Y-137872313D01*
X94738841Y-137872646D01*
X94649075Y-137867659D01*
X94565722Y-137857666D01*
X94496651Y-137842978D01*
X94410187Y-137812749D01*
X94300286Y-137758057D01*
X94202956Y-137690543D01*
X94140867Y-137639556D01*
X94137605Y-137735622D01*
X94134343Y-137831689D01*
X93711450Y-137831689D01*
X93700543Y-137831686D01*
X93606056Y-137831380D01*
X93519331Y-137830616D01*
X93442837Y-137829451D01*
X93379043Y-137827942D01*
X93330418Y-137826147D01*
X93299433Y-137824121D01*
X93288556Y-137821922D01*
X93288578Y-137821463D01*
X93295614Y-137805910D01*
X93311434Y-137783071D01*
X93315734Y-137777638D01*
X93326777Y-137763606D01*
X93336311Y-137750186D01*
X93344461Y-137735722D01*
X93351352Y-137718556D01*
X93357111Y-137697034D01*
X93361862Y-137669498D01*
X93365731Y-137634292D01*
X93368844Y-137589760D01*
X93371325Y-137534246D01*
X93373300Y-137466093D01*
X93374894Y-137383645D01*
X93376234Y-137285246D01*
X93377444Y-137169239D01*
X93378649Y-137033968D01*
X93379595Y-136922586D01*
X94180378Y-136922586D01*
X94180378Y-137118462D01*
X94225048Y-137174973D01*
X94237785Y-137190212D01*
X94284604Y-137232844D01*
X94345255Y-137268672D01*
X94355897Y-137273850D01*
X94394676Y-137290745D01*
X94429692Y-137300909D01*
X94469722Y-137306325D01*
X94523541Y-137308978D01*
X94541648Y-137309383D01*
X94617011Y-137306540D01*
X94677743Y-137294620D01*
X94729452Y-137272037D01*
X94777746Y-137237211D01*
X94782803Y-137232798D01*
X94831272Y-137177160D01*
X94859459Y-137113333D01*
X94868752Y-137038282D01*
X94861520Y-136966693D01*
X94836796Y-136903645D01*
X94792249Y-136845758D01*
X94737319Y-136798808D01*
X94664894Y-136758961D01*
X94578340Y-136731263D01*
X94475670Y-136715096D01*
X94354894Y-136709842D01*
X94346007Y-136709857D01*
X94290660Y-136710655D01*
X94243736Y-136712488D01*
X94209953Y-136715111D01*
X94194028Y-136718274D01*
X94189943Y-136724741D01*
X94185572Y-136746875D01*
X94182604Y-136785988D01*
X94180914Y-136843939D01*
X94180378Y-136922586D01*
X93379595Y-136922586D01*
X93379975Y-136877778D01*
X93381228Y-136735012D01*
X93382651Y-136589942D01*
X93384176Y-136464027D01*
X93385933Y-136355436D01*
X93388051Y-136262334D01*
X93390660Y-136182891D01*
X93393890Y-136115273D01*
X93397869Y-136057649D01*
X93402728Y-136008185D01*
X93408597Y-135965050D01*
X93415604Y-135926410D01*
X93423880Y-135890434D01*
X93433554Y-135855289D01*
X93444756Y-135819142D01*
X93457616Y-135780161D01*
X93473090Y-135737091D01*
X93515994Y-135644871D01*
X93569735Y-135565099D01*
X93638576Y-135490965D01*
X93716185Y-135427405D01*
X93820761Y-135365725D01*
X93940244Y-135318202D01*
X94075508Y-135284567D01*
X94227426Y-135264552D01*
X94396872Y-135257889D01*
X94454890Y-135258287D01*
X94520398Y-135260335D01*
X94581693Y-135264704D01*
X94643097Y-135272035D01*
X94708932Y-135282969D01*
X94783520Y-135298147D01*
X94871184Y-135318209D01*
X94976245Y-135343797D01*
X95004806Y-135350820D01*
X95080054Y-135368776D01*
X95150388Y-135384820D01*
X95211567Y-135398028D01*
X95259354Y-135407474D01*
X95289511Y-135412231D01*
X95317783Y-135415910D01*
X95344060Y-135421187D01*
X95354059Y-135425942D01*
X95350952Y-135434781D01*
X95340194Y-135462072D01*
X95322864Y-135504906D01*
X95300126Y-135560425D01*
X95273147Y-135625772D01*
X95243090Y-135698089D01*
X95236493Y-135713879D01*
X95197907Y-135804484D01*
X95166768Y-135874217D01*
X95142917Y-135923405D01*
X95126198Y-135952374D01*
X95116454Y-135961452D01*
X95108766Y-135959405D01*
X95082415Y-135949760D01*
X95043982Y-135934190D01*
X94998822Y-135914815D01*
X94904293Y-135876814D01*
X94767480Y-135835780D01*
X94626289Y-135810612D01*
X94588314Y-135806611D01*
X94485059Y-135804447D01*
X94397952Y-135817622D01*
X94326129Y-135846756D01*
X94268731Y-135892466D01*
X94224896Y-135955372D01*
X94193762Y-136036092D01*
X94174470Y-136135245D01*
X94167050Y-136194224D01*
X94328936Y-136187445D01*
X94455495Y-136185813D01*
X94606951Y-136192194D01*
X94755396Y-136206777D01*
X94891578Y-136228882D01*
X94956245Y-136243821D01*
X95088490Y-136286741D01*
X95210762Y-136343340D01*
X95320685Y-136412017D01*
X95415883Y-136491170D01*
X95493980Y-136579196D01*
X95552599Y-136674493D01*
X95576595Y-136726864D01*
X95602232Y-136797590D01*
X95618478Y-136868812D01*
X95626822Y-136947712D01*
X95628690Y-137038282D01*
X95628755Y-137041467D01*
G37*
X103176614Y-134509792D02*
X103177059Y-134641011D01*
X103177362Y-134788216D01*
X103177548Y-134952349D01*
X103177642Y-135134352D01*
X103177671Y-135335165D01*
X103177661Y-135555732D01*
X103177636Y-135796992D01*
X103177622Y-136059889D01*
X103177622Y-136102040D01*
X103177646Y-136362668D01*
X103177685Y-136601796D01*
X103177708Y-136820360D01*
X103177687Y-137019295D01*
X103177593Y-137199535D01*
X103177395Y-137362015D01*
X103177063Y-137507670D01*
X103176569Y-137637434D01*
X103175883Y-137752243D01*
X103174976Y-137853030D01*
X103173817Y-137940730D01*
X103172378Y-138016279D01*
X103170629Y-138080611D01*
X103168540Y-138134661D01*
X103166083Y-138179363D01*
X103163227Y-138215652D01*
X103159943Y-138244463D01*
X103156202Y-138266731D01*
X103151974Y-138283390D01*
X103147229Y-138295375D01*
X103141939Y-138303621D01*
X103136073Y-138309062D01*
X103129602Y-138312634D01*
X103122497Y-138315270D01*
X103114728Y-138317906D01*
X103106266Y-138321477D01*
X103101908Y-138323145D01*
X103093395Y-138325111D01*
X103080694Y-138326911D01*
X103062885Y-138328555D01*
X103039049Y-138330047D01*
X103008266Y-138331397D01*
X102969617Y-138332611D01*
X102922182Y-138333697D01*
X102865043Y-138334661D01*
X102797279Y-138335511D01*
X102717971Y-138336253D01*
X102626199Y-138336897D01*
X102521044Y-138337447D01*
X102401587Y-138337913D01*
X102266908Y-138338300D01*
X102116088Y-138338616D01*
X101948206Y-138338869D01*
X101762345Y-138339066D01*
X101557583Y-138339213D01*
X101333002Y-138339318D01*
X101087682Y-138339389D01*
X100820704Y-138339432D01*
X100782321Y-138339437D01*
X100516922Y-138339480D01*
X100273050Y-138339525D01*
X100049783Y-138339548D01*
X99846196Y-138339524D01*
X99661367Y-138339430D01*
X99494373Y-138339243D01*
X99344290Y-138338939D01*
X99210196Y-138338494D01*
X99091166Y-138337885D01*
X98986279Y-138337089D01*
X98894610Y-138336080D01*
X98815237Y-138334837D01*
X98747237Y-138333335D01*
X98689686Y-138331551D01*
X98641662Y-138329461D01*
X98602240Y-138327042D01*
X98570499Y-138324270D01*
X98545514Y-138321121D01*
X98526364Y-138317572D01*
X98512123Y-138313598D01*
X98501871Y-138309178D01*
X98494682Y-138304286D01*
X98489635Y-138298900D01*
X98485805Y-138292996D01*
X98482271Y-138286549D01*
X98478108Y-138279537D01*
X98477025Y-138277687D01*
X98474813Y-138272180D01*
X98472786Y-138263868D01*
X98470938Y-138251809D01*
X98469261Y-138235063D01*
X98467745Y-138212687D01*
X98466383Y-138183740D01*
X98465167Y-138147280D01*
X98464089Y-138102367D01*
X98463140Y-138048057D01*
X98462312Y-137983410D01*
X98461597Y-137907484D01*
X98460987Y-137819338D01*
X98460942Y-137810493D01*
X98752378Y-137810493D01*
X98756260Y-137811765D01*
X98779520Y-137813791D01*
X98821874Y-137815626D01*
X98881132Y-137817227D01*
X98955107Y-137818549D01*
X99041610Y-137819548D01*
X99138452Y-137820180D01*
X99243445Y-137820400D01*
X99941651Y-137820400D01*
X101096090Y-137820400D01*
X101095456Y-137744200D01*
X101096574Y-137702160D01*
X101102304Y-137666334D01*
X101114890Y-137628772D01*
X101136568Y-137580577D01*
X101139789Y-137573897D01*
X101165188Y-137524359D01*
X101191996Y-137476369D01*
X101214917Y-137439466D01*
X101219485Y-137432834D01*
X101241516Y-137401593D01*
X101273693Y-137356654D01*
X101314457Y-137300147D01*
X101362245Y-137234204D01*
X101415498Y-137160957D01*
X101472655Y-137082536D01*
X101532155Y-137001072D01*
X101592437Y-136918698D01*
X101651940Y-136837544D01*
X101709105Y-136759742D01*
X101762370Y-136687423D01*
X101810174Y-136622718D01*
X101850957Y-136567759D01*
X101883158Y-136524676D01*
X101905216Y-136495602D01*
X101915571Y-136482667D01*
X101920044Y-136478351D01*
X101924236Y-136476312D01*
X101927643Y-136478926D01*
X101930325Y-136487986D01*
X101932341Y-136505285D01*
X101933748Y-136532614D01*
X101934605Y-136571765D01*
X101934970Y-136624533D01*
X101934903Y-136692707D01*
X101934460Y-136778082D01*
X101933702Y-136882449D01*
X101932685Y-137007600D01*
X101932308Y-137052300D01*
X101931169Y-137173395D01*
X101929972Y-137274688D01*
X101928636Y-137358262D01*
X101927077Y-137426204D01*
X101925215Y-137480599D01*
X101922966Y-137523532D01*
X101920248Y-137557089D01*
X101916979Y-137583355D01*
X101913078Y-137604416D01*
X101908461Y-137622357D01*
X101900192Y-137648770D01*
X101876583Y-137710772D01*
X101850685Y-137763573D01*
X101825535Y-137800645D01*
X101824339Y-137802075D01*
X101822168Y-137806424D01*
X101824328Y-137810026D01*
X101832644Y-137812951D01*
X101848940Y-137815269D01*
X101875041Y-137817051D01*
X101912771Y-137818367D01*
X101963956Y-137819286D01*
X102030420Y-137819878D01*
X102113987Y-137820215D01*
X102216483Y-137820365D01*
X102339732Y-137820400D01*
X102871296Y-137820400D01*
X102832523Y-137762783D01*
X102826432Y-137753893D01*
X102815976Y-137739069D01*
X102806579Y-137725422D01*
X102798183Y-137711765D01*
X102790733Y-137696911D01*
X102784173Y-137679670D01*
X102778446Y-137658855D01*
X102773495Y-137633280D01*
X102769266Y-137601755D01*
X102765701Y-137563093D01*
X102762744Y-137516107D01*
X102760340Y-137459608D01*
X102758431Y-137392409D01*
X102756962Y-137313322D01*
X102755876Y-137221160D01*
X102755118Y-137114734D01*
X102754630Y-136992857D01*
X102754358Y-136854341D01*
X102754243Y-136697999D01*
X102754231Y-136522642D01*
X102754265Y-136327082D01*
X102754289Y-136110133D01*
X102754280Y-135987513D01*
X102754243Y-135782447D01*
X102754227Y-135598116D01*
X102754288Y-135433334D01*
X102754484Y-135286916D01*
X102754870Y-135157674D01*
X102755505Y-135044422D01*
X102756444Y-134945975D01*
X102757745Y-134861144D01*
X102759464Y-134788744D01*
X102761659Y-134727589D01*
X102764385Y-134676492D01*
X102767701Y-134634267D01*
X102771662Y-134599727D01*
X102776325Y-134571686D01*
X102781747Y-134548958D01*
X102787986Y-134530356D01*
X102795097Y-134514693D01*
X102803138Y-134500784D01*
X102812166Y-134487441D01*
X102822236Y-134473479D01*
X102833407Y-134457711D01*
X102873197Y-134399867D01*
X101813314Y-134399867D01*
X101851311Y-134462966D01*
X101865993Y-134488005D01*
X101880531Y-134515586D01*
X101892627Y-134543700D01*
X101902532Y-134574551D01*
X101910494Y-134610344D01*
X101916761Y-134653283D01*
X101921582Y-134705574D01*
X101925206Y-134769419D01*
X101927881Y-134847025D01*
X101929857Y-134940594D01*
X101931382Y-135052333D01*
X101932704Y-135184445D01*
X101933613Y-135304434D01*
X101934020Y-135421063D01*
X101933767Y-135516531D01*
X101932857Y-135590556D01*
X101931293Y-135642855D01*
X101929079Y-135673149D01*
X101926220Y-135681156D01*
X101923161Y-135677858D01*
X101905006Y-135656408D01*
X101875275Y-135619889D01*
X101835639Y-135570442D01*
X101787771Y-135510207D01*
X101733343Y-135441327D01*
X101674027Y-135365943D01*
X101611495Y-135286196D01*
X101547421Y-135204228D01*
X101483475Y-135122180D01*
X101421331Y-135042194D01*
X101362661Y-134966411D01*
X101309137Y-134896973D01*
X101262430Y-134836021D01*
X101224214Y-134785696D01*
X101196161Y-134748140D01*
X101179943Y-134725495D01*
X101134635Y-134653212D01*
X101094661Y-134573463D01*
X101073130Y-134505188D01*
X101069827Y-134447844D01*
X101075116Y-134399867D01*
X99943356Y-134400117D01*
X99982867Y-134430722D01*
X99992248Y-134438089D01*
X100055183Y-134492438D01*
X100123997Y-134560259D01*
X100200596Y-134643516D01*
X100286888Y-134744178D01*
X100304052Y-134764847D01*
X100344833Y-134814409D01*
X100394588Y-134875326D01*
X100451955Y-134945898D01*
X100515569Y-135024424D01*
X100584069Y-135109204D01*
X100656090Y-135198537D01*
X100730270Y-135290722D01*
X100745517Y-135309702D01*
X100805246Y-135384060D01*
X100879653Y-135476848D01*
X100952131Y-135567388D01*
X101021314Y-135653978D01*
X101085841Y-135734918D01*
X101144347Y-135808506D01*
X101195470Y-135873044D01*
X101237847Y-135926829D01*
X101270115Y-135968162D01*
X101290910Y-135995342D01*
X101298869Y-136006668D01*
X101297111Y-136010771D01*
X101284230Y-136031334D01*
X101259885Y-136067561D01*
X101225247Y-136117824D01*
X101181486Y-136180492D01*
X101129775Y-136253936D01*
X101071284Y-136336527D01*
X101007184Y-136426636D01*
X100938646Y-136522631D01*
X100866843Y-136622885D01*
X100792944Y-136725768D01*
X100718121Y-136829650D01*
X100643545Y-136932901D01*
X100570387Y-137033892D01*
X100499819Y-137130994D01*
X100433011Y-137222577D01*
X100371135Y-137307011D01*
X100315361Y-137382667D01*
X100266862Y-137447916D01*
X100226807Y-137501128D01*
X100196369Y-137540673D01*
X100175944Y-137566026D01*
X100129899Y-137620295D01*
X100079612Y-137676775D01*
X100032815Y-137726669D01*
X99941651Y-137820400D01*
X99243445Y-137820400D01*
X99312356Y-137820349D01*
X99410607Y-137820091D01*
X99500030Y-137819637D01*
X99578333Y-137819010D01*
X99643223Y-137818235D01*
X99692411Y-137817335D01*
X99723604Y-137816334D01*
X99734511Y-137815257D01*
X99733322Y-137812037D01*
X99723176Y-137794452D01*
X99706040Y-137768158D01*
X99697540Y-137755691D01*
X99688329Y-137741622D01*
X99680233Y-137727351D01*
X99673185Y-137711479D01*
X99667117Y-137692609D01*
X99661961Y-137669341D01*
X99657651Y-137640278D01*
X99654119Y-137604021D01*
X99651297Y-137559170D01*
X99649118Y-137504328D01*
X99647514Y-137438097D01*
X99646419Y-137359077D01*
X99645765Y-137265871D01*
X99645484Y-137157079D01*
X99645509Y-137031303D01*
X99645772Y-136887145D01*
X99646206Y-136723207D01*
X99646745Y-136538089D01*
X99647279Y-136359232D01*
X99647805Y-136200374D01*
X99648350Y-136061316D01*
X99648945Y-135940665D01*
X99649619Y-135837028D01*
X99650403Y-135749011D01*
X99651326Y-135675223D01*
X99652419Y-135614269D01*
X99653712Y-135564757D01*
X99655235Y-135525293D01*
X99657019Y-135494484D01*
X99659092Y-135470938D01*
X99661486Y-135453260D01*
X99664230Y-135440059D01*
X99667356Y-135429940D01*
X99670892Y-135421511D01*
X99674791Y-135413375D01*
X99694438Y-135376544D01*
X99713225Y-135346391D01*
X99714272Y-135344908D01*
X99728602Y-135322659D01*
X99734511Y-135309702D01*
X99733504Y-135309249D01*
X99716305Y-135307803D01*
X99679656Y-135306480D01*
X99625962Y-135305316D01*
X99557630Y-135304347D01*
X99477064Y-135303611D01*
X99386670Y-135303142D01*
X99288853Y-135302978D01*
X98843195Y-135302978D01*
X98840120Y-136479845D01*
X98837045Y-137656711D01*
X98810407Y-137715622D01*
X98798485Y-137740183D01*
X98781246Y-137770434D01*
X98768074Y-137787560D01*
X98760076Y-137795591D01*
X98752378Y-137810493D01*
X98460942Y-137810493D01*
X98460474Y-137718029D01*
X98460050Y-137602617D01*
X98459706Y-137472160D01*
X98459434Y-137325716D01*
X98459227Y-137162344D01*
X98459076Y-136981101D01*
X98458972Y-136781048D01*
X98458908Y-136561241D01*
X98458876Y-136320739D01*
X98458867Y-136058602D01*
X98458867Y-133867031D01*
X98497249Y-133828649D01*
X98524355Y-133804911D01*
X98551253Y-133793111D01*
X98587560Y-133790267D01*
X98639489Y-133790267D01*
X98639489Y-133878206D01*
X98641427Y-133928102D01*
X98660199Y-134038523D01*
X98697217Y-134139987D01*
X98750369Y-134231152D01*
X98817546Y-134310673D01*
X98896638Y-134377205D01*
X98985534Y-134429406D01*
X99082125Y-134465930D01*
X99184300Y-134485434D01*
X99289950Y-134486573D01*
X99396964Y-134468005D01*
X99503232Y-134428384D01*
X99600219Y-134370516D01*
X99685293Y-134295684D01*
X99754015Y-134207615D01*
X99804918Y-134108616D01*
X99836535Y-134000993D01*
X99847400Y-133887054D01*
X99847400Y-133790267D01*
X101467753Y-133790267D01*
X101678897Y-133790280D01*
X101883020Y-133790330D01*
X102066686Y-133790430D01*
X102230991Y-133790592D01*
X102377029Y-133790829D01*
X102505894Y-133791153D01*
X102618683Y-133791575D01*
X102716488Y-133792109D01*
X102800404Y-133792767D01*
X102871527Y-133793561D01*
X102930950Y-133794504D01*
X102979768Y-133795608D01*
X103019077Y-133796884D01*
X103049969Y-133798347D01*
X103073541Y-133800007D01*
X103090886Y-133801878D01*
X103103099Y-133803972D01*
X103111275Y-133806300D01*
X103116508Y-133808876D01*
X103122504Y-133812445D01*
X103129279Y-133815978D01*
X103135478Y-133819488D01*
X103141126Y-133823918D01*
X103146247Y-133830208D01*
X103150869Y-133839301D01*
X103155015Y-133852139D01*
X103158713Y-133869662D01*
X103161987Y-133892813D01*
X103164863Y-133922534D01*
X103167367Y-133959765D01*
X103169524Y-134005449D01*
X103171360Y-134060527D01*
X103172900Y-134125941D01*
X103174170Y-134202633D01*
X103175195Y-134291544D01*
X103176001Y-134393617D01*
X103176034Y-134399867D01*
X103176614Y-134509792D01*
G36*
X103176614Y-134509792D02*
G01*
X103177059Y-134641011D01*
X103177362Y-134788216D01*
X103177548Y-134952349D01*
X103177642Y-135134352D01*
X103177671Y-135335165D01*
X103177661Y-135555732D01*
X103177636Y-135796992D01*
X103177622Y-136059889D01*
X103177622Y-136102040D01*
X103177646Y-136362668D01*
X103177685Y-136601796D01*
X103177708Y-136820360D01*
X103177687Y-137019295D01*
X103177593Y-137199535D01*
X103177395Y-137362015D01*
X103177063Y-137507670D01*
X103176569Y-137637434D01*
X103175883Y-137752243D01*
X103174976Y-137853030D01*
X103173817Y-137940730D01*
X103172378Y-138016279D01*
X103170629Y-138080611D01*
X103168540Y-138134661D01*
X103166083Y-138179363D01*
X103163227Y-138215652D01*
X103159943Y-138244463D01*
X103156202Y-138266731D01*
X103151974Y-138283390D01*
X103147229Y-138295375D01*
X103141939Y-138303621D01*
X103136073Y-138309062D01*
X103129602Y-138312634D01*
X103122497Y-138315270D01*
X103114728Y-138317906D01*
X103106266Y-138321477D01*
X103101908Y-138323145D01*
X103093395Y-138325111D01*
X103080694Y-138326911D01*
X103062885Y-138328555D01*
X103039049Y-138330047D01*
X103008266Y-138331397D01*
X102969617Y-138332611D01*
X102922182Y-138333697D01*
X102865043Y-138334661D01*
X102797279Y-138335511D01*
X102717971Y-138336253D01*
X102626199Y-138336897D01*
X102521044Y-138337447D01*
X102401587Y-138337913D01*
X102266908Y-138338300D01*
X102116088Y-138338616D01*
X101948206Y-138338869D01*
X101762345Y-138339066D01*
X101557583Y-138339213D01*
X101333002Y-138339318D01*
X101087682Y-138339389D01*
X100820704Y-138339432D01*
X100782321Y-138339437D01*
X100516922Y-138339480D01*
X100273050Y-138339525D01*
X100049783Y-138339548D01*
X99846196Y-138339524D01*
X99661367Y-138339430D01*
X99494373Y-138339243D01*
X99344290Y-138338939D01*
X99210196Y-138338494D01*
X99091166Y-138337885D01*
X98986279Y-138337089D01*
X98894610Y-138336080D01*
X98815237Y-138334837D01*
X98747237Y-138333335D01*
X98689686Y-138331551D01*
X98641662Y-138329461D01*
X98602240Y-138327042D01*
X98570499Y-138324270D01*
X98545514Y-138321121D01*
X98526364Y-138317572D01*
X98512123Y-138313598D01*
X98501871Y-138309178D01*
X98494682Y-138304286D01*
X98489635Y-138298900D01*
X98485805Y-138292996D01*
X98482271Y-138286549D01*
X98478108Y-138279537D01*
X98477025Y-138277687D01*
X98474813Y-138272180D01*
X98472786Y-138263868D01*
X98470938Y-138251809D01*
X98469261Y-138235063D01*
X98467745Y-138212687D01*
X98466383Y-138183740D01*
X98465167Y-138147280D01*
X98464089Y-138102367D01*
X98463140Y-138048057D01*
X98462312Y-137983410D01*
X98461597Y-137907484D01*
X98460987Y-137819338D01*
X98460942Y-137810493D01*
X98752378Y-137810493D01*
X98756260Y-137811765D01*
X98779520Y-137813791D01*
X98821874Y-137815626D01*
X98881132Y-137817227D01*
X98955107Y-137818549D01*
X99041610Y-137819548D01*
X99138452Y-137820180D01*
X99243445Y-137820400D01*
X99941651Y-137820400D01*
X101096090Y-137820400D01*
X101095456Y-137744200D01*
X101096574Y-137702160D01*
X101102304Y-137666334D01*
X101114890Y-137628772D01*
X101136568Y-137580577D01*
X101139789Y-137573897D01*
X101165188Y-137524359D01*
X101191996Y-137476369D01*
X101214917Y-137439466D01*
X101219485Y-137432834D01*
X101241516Y-137401593D01*
X101273693Y-137356654D01*
X101314457Y-137300147D01*
X101362245Y-137234204D01*
X101415498Y-137160957D01*
X101472655Y-137082536D01*
X101532155Y-137001072D01*
X101592437Y-136918698D01*
X101651940Y-136837544D01*
X101709105Y-136759742D01*
X101762370Y-136687423D01*
X101810174Y-136622718D01*
X101850957Y-136567759D01*
X101883158Y-136524676D01*
X101905216Y-136495602D01*
X101915571Y-136482667D01*
X101920044Y-136478351D01*
X101924236Y-136476312D01*
X101927643Y-136478926D01*
X101930325Y-136487986D01*
X101932341Y-136505285D01*
X101933748Y-136532614D01*
X101934605Y-136571765D01*
X101934970Y-136624533D01*
X101934903Y-136692707D01*
X101934460Y-136778082D01*
X101933702Y-136882449D01*
X101932685Y-137007600D01*
X101932308Y-137052300D01*
X101931169Y-137173395D01*
X101929972Y-137274688D01*
X101928636Y-137358262D01*
X101927077Y-137426204D01*
X101925215Y-137480599D01*
X101922966Y-137523532D01*
X101920248Y-137557089D01*
X101916979Y-137583355D01*
X101913078Y-137604416D01*
X101908461Y-137622357D01*
X101900192Y-137648770D01*
X101876583Y-137710772D01*
X101850685Y-137763573D01*
X101825535Y-137800645D01*
X101824339Y-137802075D01*
X101822168Y-137806424D01*
X101824328Y-137810026D01*
X101832644Y-137812951D01*
X101848940Y-137815269D01*
X101875041Y-137817051D01*
X101912771Y-137818367D01*
X101963956Y-137819286D01*
X102030420Y-137819878D01*
X102113987Y-137820215D01*
X102216483Y-137820365D01*
X102339732Y-137820400D01*
X102871296Y-137820400D01*
X102832523Y-137762783D01*
X102826432Y-137753893D01*
X102815976Y-137739069D01*
X102806579Y-137725422D01*
X102798183Y-137711765D01*
X102790733Y-137696911D01*
X102784173Y-137679670D01*
X102778446Y-137658855D01*
X102773495Y-137633280D01*
X102769266Y-137601755D01*
X102765701Y-137563093D01*
X102762744Y-137516107D01*
X102760340Y-137459608D01*
X102758431Y-137392409D01*
X102756962Y-137313322D01*
X102755876Y-137221160D01*
X102755118Y-137114734D01*
X102754630Y-136992857D01*
X102754358Y-136854341D01*
X102754243Y-136697999D01*
X102754231Y-136522642D01*
X102754265Y-136327082D01*
X102754289Y-136110133D01*
X102754280Y-135987513D01*
X102754243Y-135782447D01*
X102754227Y-135598116D01*
X102754288Y-135433334D01*
X102754484Y-135286916D01*
X102754870Y-135157674D01*
X102755505Y-135044422D01*
X102756444Y-134945975D01*
X102757745Y-134861144D01*
X102759464Y-134788744D01*
X102761659Y-134727589D01*
X102764385Y-134676492D01*
X102767701Y-134634267D01*
X102771662Y-134599727D01*
X102776325Y-134571686D01*
X102781747Y-134548958D01*
X102787986Y-134530356D01*
X102795097Y-134514693D01*
X102803138Y-134500784D01*
X102812166Y-134487441D01*
X102822236Y-134473479D01*
X102833407Y-134457711D01*
X102873197Y-134399867D01*
X101813314Y-134399867D01*
X101851311Y-134462966D01*
X101865993Y-134488005D01*
X101880531Y-134515586D01*
X101892627Y-134543700D01*
X101902532Y-134574551D01*
X101910494Y-134610344D01*
X101916761Y-134653283D01*
X101921582Y-134705574D01*
X101925206Y-134769419D01*
X101927881Y-134847025D01*
X101929857Y-134940594D01*
X101931382Y-135052333D01*
X101932704Y-135184445D01*
X101933613Y-135304434D01*
X101934020Y-135421063D01*
X101933767Y-135516531D01*
X101932857Y-135590556D01*
X101931293Y-135642855D01*
X101929079Y-135673149D01*
X101926220Y-135681156D01*
X101923161Y-135677858D01*
X101905006Y-135656408D01*
X101875275Y-135619889D01*
X101835639Y-135570442D01*
X101787771Y-135510207D01*
X101733343Y-135441327D01*
X101674027Y-135365943D01*
X101611495Y-135286196D01*
X101547421Y-135204228D01*
X101483475Y-135122180D01*
X101421331Y-135042194D01*
X101362661Y-134966411D01*
X101309137Y-134896973D01*
X101262430Y-134836021D01*
X101224214Y-134785696D01*
X101196161Y-134748140D01*
X101179943Y-134725495D01*
X101134635Y-134653212D01*
X101094661Y-134573463D01*
X101073130Y-134505188D01*
X101069827Y-134447844D01*
X101075116Y-134399867D01*
X99943356Y-134400117D01*
X99982867Y-134430722D01*
X99992248Y-134438089D01*
X100055183Y-134492438D01*
X100123997Y-134560259D01*
X100200596Y-134643516D01*
X100286888Y-134744178D01*
X100304052Y-134764847D01*
X100344833Y-134814409D01*
X100394588Y-134875326D01*
X100451955Y-134945898D01*
X100515569Y-135024424D01*
X100584069Y-135109204D01*
X100656090Y-135198537D01*
X100730270Y-135290722D01*
X100745517Y-135309702D01*
X100805246Y-135384060D01*
X100879653Y-135476848D01*
X100952131Y-135567388D01*
X101021314Y-135653978D01*
X101085841Y-135734918D01*
X101144347Y-135808506D01*
X101195470Y-135873044D01*
X101237847Y-135926829D01*
X101270115Y-135968162D01*
X101290910Y-135995342D01*
X101298869Y-136006668D01*
X101297111Y-136010771D01*
X101284230Y-136031334D01*
X101259885Y-136067561D01*
X101225247Y-136117824D01*
X101181486Y-136180492D01*
X101129775Y-136253936D01*
X101071284Y-136336527D01*
X101007184Y-136426636D01*
X100938646Y-136522631D01*
X100866843Y-136622885D01*
X100792944Y-136725768D01*
X100718121Y-136829650D01*
X100643545Y-136932901D01*
X100570387Y-137033892D01*
X100499819Y-137130994D01*
X100433011Y-137222577D01*
X100371135Y-137307011D01*
X100315361Y-137382667D01*
X100266862Y-137447916D01*
X100226807Y-137501128D01*
X100196369Y-137540673D01*
X100175944Y-137566026D01*
X100129899Y-137620295D01*
X100079612Y-137676775D01*
X100032815Y-137726669D01*
X99941651Y-137820400D01*
X99243445Y-137820400D01*
X99312356Y-137820349D01*
X99410607Y-137820091D01*
X99500030Y-137819637D01*
X99578333Y-137819010D01*
X99643223Y-137818235D01*
X99692411Y-137817335D01*
X99723604Y-137816334D01*
X99734511Y-137815257D01*
X99733322Y-137812037D01*
X99723176Y-137794452D01*
X99706040Y-137768158D01*
X99697540Y-137755691D01*
X99688329Y-137741622D01*
X99680233Y-137727351D01*
X99673185Y-137711479D01*
X99667117Y-137692609D01*
X99661961Y-137669341D01*
X99657651Y-137640278D01*
X99654119Y-137604021D01*
X99651297Y-137559170D01*
X99649118Y-137504328D01*
X99647514Y-137438097D01*
X99646419Y-137359077D01*
X99645765Y-137265871D01*
X99645484Y-137157079D01*
X99645509Y-137031303D01*
X99645772Y-136887145D01*
X99646206Y-136723207D01*
X99646745Y-136538089D01*
X99647279Y-136359232D01*
X99647805Y-136200374D01*
X99648350Y-136061316D01*
X99648945Y-135940665D01*
X99649619Y-135837028D01*
X99650403Y-135749011D01*
X99651326Y-135675223D01*
X99652419Y-135614269D01*
X99653712Y-135564757D01*
X99655235Y-135525293D01*
X99657019Y-135494484D01*
X99659092Y-135470938D01*
X99661486Y-135453260D01*
X99664230Y-135440059D01*
X99667356Y-135429940D01*
X99670892Y-135421511D01*
X99674791Y-135413375D01*
X99694438Y-135376544D01*
X99713225Y-135346391D01*
X99714272Y-135344908D01*
X99728602Y-135322659D01*
X99734511Y-135309702D01*
X99733504Y-135309249D01*
X99716305Y-135307803D01*
X99679656Y-135306480D01*
X99625962Y-135305316D01*
X99557630Y-135304347D01*
X99477064Y-135303611D01*
X99386670Y-135303142D01*
X99288853Y-135302978D01*
X98843195Y-135302978D01*
X98840120Y-136479845D01*
X98837045Y-137656711D01*
X98810407Y-137715622D01*
X98798485Y-137740183D01*
X98781246Y-137770434D01*
X98768074Y-137787560D01*
X98760076Y-137795591D01*
X98752378Y-137810493D01*
X98460942Y-137810493D01*
X98460474Y-137718029D01*
X98460050Y-137602617D01*
X98459706Y-137472160D01*
X98459434Y-137325716D01*
X98459227Y-137162344D01*
X98459076Y-136981101D01*
X98458972Y-136781048D01*
X98458908Y-136561241D01*
X98458876Y-136320739D01*
X98458867Y-136058602D01*
X98458867Y-133867031D01*
X98497249Y-133828649D01*
X98524355Y-133804911D01*
X98551253Y-133793111D01*
X98587560Y-133790267D01*
X98639489Y-133790267D01*
X98639489Y-133878206D01*
X98641427Y-133928102D01*
X98660199Y-134038523D01*
X98697217Y-134139987D01*
X98750369Y-134231152D01*
X98817546Y-134310673D01*
X98896638Y-134377205D01*
X98985534Y-134429406D01*
X99082125Y-134465930D01*
X99184300Y-134485434D01*
X99289950Y-134486573D01*
X99396964Y-134468005D01*
X99503232Y-134428384D01*
X99600219Y-134370516D01*
X99685293Y-134295684D01*
X99754015Y-134207615D01*
X99804918Y-134108616D01*
X99836535Y-134000993D01*
X99847400Y-133887054D01*
X99847400Y-133790267D01*
X101467753Y-133790267D01*
X101678897Y-133790280D01*
X101883020Y-133790330D01*
X102066686Y-133790430D01*
X102230991Y-133790592D01*
X102377029Y-133790829D01*
X102505894Y-133791153D01*
X102618683Y-133791575D01*
X102716488Y-133792109D01*
X102800404Y-133792767D01*
X102871527Y-133793561D01*
X102930950Y-133794504D01*
X102979768Y-133795608D01*
X103019077Y-133796884D01*
X103049969Y-133798347D01*
X103073541Y-133800007D01*
X103090886Y-133801878D01*
X103103099Y-133803972D01*
X103111275Y-133806300D01*
X103116508Y-133808876D01*
X103122504Y-133812445D01*
X103129279Y-133815978D01*
X103135478Y-133819488D01*
X103141126Y-133823918D01*
X103146247Y-133830208D01*
X103150869Y-133839301D01*
X103155015Y-133852139D01*
X103158713Y-133869662D01*
X103161987Y-133892813D01*
X103164863Y-133922534D01*
X103167367Y-133959765D01*
X103169524Y-134005449D01*
X103171360Y-134060527D01*
X103172900Y-134125941D01*
X103174170Y-134202633D01*
X103175195Y-134291544D01*
X103176001Y-134393617D01*
X103176034Y-134399867D01*
X103176614Y-134509792D01*
G37*
%TD*%
M02*
