%TF.GenerationSoftware,KiCad,Pcbnew,9.0.1*%
%TF.CreationDate,2025-05-08T13:19:39+05:30*%
%TF.ProjectId,1. LED Torch,312e204c-4544-4205-946f-7263682e6b69,1*%
%TF.SameCoordinates,Original*%
%TF.FileFunction,Legend,Top*%
%TF.FilePolarity,Positive*%
%FSLAX46Y46*%
G04 Gerber Fmt 4.6, Leading zero omitted, Abs format (unit mm)*
G04 Created by KiCad (PCBNEW 9.0.1) date 2025-05-08 13:19:39*
%MOMM*%
%LPD*%
G01*
G04 APERTURE LIST*
%ADD10C,0.100000*%
%ADD11C,0.150000*%
%ADD12C,0.120000*%
G04 APERTURE END LIST*
D10*
X56564884Y-143636466D02*
X57326789Y-143636466D01*
X56945836Y-144017419D02*
X56945836Y-143255514D01*
X56564884Y-135762466D02*
X57326789Y-135762466D01*
D11*
X96369285Y-132011009D02*
X96512142Y-132058628D01*
X96512142Y-132058628D02*
X96559761Y-132106247D01*
X96559761Y-132106247D02*
X96607380Y-132201485D01*
X96607380Y-132201485D02*
X96607380Y-132344342D01*
X96607380Y-132344342D02*
X96559761Y-132439580D01*
X96559761Y-132439580D02*
X96512142Y-132487200D01*
X96512142Y-132487200D02*
X96416904Y-132534819D01*
X96416904Y-132534819D02*
X96035952Y-132534819D01*
X96035952Y-132534819D02*
X96035952Y-131534819D01*
X96035952Y-131534819D02*
X96369285Y-131534819D01*
X96369285Y-131534819D02*
X96464523Y-131582438D01*
X96464523Y-131582438D02*
X96512142Y-131630057D01*
X96512142Y-131630057D02*
X96559761Y-131725295D01*
X96559761Y-131725295D02*
X96559761Y-131820533D01*
X96559761Y-131820533D02*
X96512142Y-131915771D01*
X96512142Y-131915771D02*
X96464523Y-131963390D01*
X96464523Y-131963390D02*
X96369285Y-132011009D01*
X96369285Y-132011009D02*
X96035952Y-132011009D01*
X96893095Y-131534819D02*
X97464523Y-131534819D01*
X97178809Y-132534819D02*
X97178809Y-131534819D01*
X98321666Y-132534819D02*
X97750238Y-132534819D01*
X98035952Y-132534819D02*
X98035952Y-131534819D01*
X98035952Y-131534819D02*
X97940714Y-131677676D01*
X97940714Y-131677676D02*
X97845476Y-131772914D01*
X97845476Y-131772914D02*
X97750238Y-131820533D01*
X94043904Y-151203819D02*
X94043904Y-150203819D01*
X94043904Y-150584771D02*
X94139142Y-150537152D01*
X94139142Y-150537152D02*
X94329618Y-150537152D01*
X94329618Y-150537152D02*
X94424856Y-150584771D01*
X94424856Y-150584771D02*
X94472475Y-150632390D01*
X94472475Y-150632390D02*
X94520094Y-150727628D01*
X94520094Y-150727628D02*
X94520094Y-151013342D01*
X94520094Y-151013342D02*
X94472475Y-151108580D01*
X94472475Y-151108580D02*
X94424856Y-151156200D01*
X94424856Y-151156200D02*
X94329618Y-151203819D01*
X94329618Y-151203819D02*
X94139142Y-151203819D01*
X94139142Y-151203819D02*
X94043904Y-151156200D01*
X95377237Y-151203819D02*
X95377237Y-150680009D01*
X95377237Y-150680009D02*
X95329618Y-150584771D01*
X95329618Y-150584771D02*
X95234380Y-150537152D01*
X95234380Y-150537152D02*
X95043904Y-150537152D01*
X95043904Y-150537152D02*
X94948666Y-150584771D01*
X95377237Y-151156200D02*
X95281999Y-151203819D01*
X95281999Y-151203819D02*
X95043904Y-151203819D01*
X95043904Y-151203819D02*
X94948666Y-151156200D01*
X94948666Y-151156200D02*
X94901047Y-151060961D01*
X94901047Y-151060961D02*
X94901047Y-150965723D01*
X94901047Y-150965723D02*
X94948666Y-150870485D01*
X94948666Y-150870485D02*
X95043904Y-150822866D01*
X95043904Y-150822866D02*
X95281999Y-150822866D01*
X95281999Y-150822866D02*
X95377237Y-150775247D01*
X95710571Y-150537152D02*
X96091523Y-150537152D01*
X95853428Y-150203819D02*
X95853428Y-151060961D01*
X95853428Y-151060961D02*
X95901047Y-151156200D01*
X95901047Y-151156200D02*
X95996285Y-151203819D01*
X95996285Y-151203819D02*
X96091523Y-151203819D01*
X96186762Y-151299057D02*
X96948666Y-151299057D01*
X97139143Y-150299057D02*
X97186762Y-150251438D01*
X97186762Y-150251438D02*
X97282000Y-150203819D01*
X97282000Y-150203819D02*
X97520095Y-150203819D01*
X97520095Y-150203819D02*
X97615333Y-150251438D01*
X97615333Y-150251438D02*
X97662952Y-150299057D01*
X97662952Y-150299057D02*
X97710571Y-150394295D01*
X97710571Y-150394295D02*
X97710571Y-150489533D01*
X97710571Y-150489533D02*
X97662952Y-150632390D01*
X97662952Y-150632390D02*
X97091524Y-151203819D01*
X97091524Y-151203819D02*
X97710571Y-151203819D01*
X98329619Y-150203819D02*
X98424857Y-150203819D01*
X98424857Y-150203819D02*
X98520095Y-150251438D01*
X98520095Y-150251438D02*
X98567714Y-150299057D01*
X98567714Y-150299057D02*
X98615333Y-150394295D01*
X98615333Y-150394295D02*
X98662952Y-150584771D01*
X98662952Y-150584771D02*
X98662952Y-150822866D01*
X98662952Y-150822866D02*
X98615333Y-151013342D01*
X98615333Y-151013342D02*
X98567714Y-151108580D01*
X98567714Y-151108580D02*
X98520095Y-151156200D01*
X98520095Y-151156200D02*
X98424857Y-151203819D01*
X98424857Y-151203819D02*
X98329619Y-151203819D01*
X98329619Y-151203819D02*
X98234381Y-151156200D01*
X98234381Y-151156200D02*
X98186762Y-151108580D01*
X98186762Y-151108580D02*
X98139143Y-151013342D01*
X98139143Y-151013342D02*
X98091524Y-150822866D01*
X98091524Y-150822866D02*
X98091524Y-150584771D01*
X98091524Y-150584771D02*
X98139143Y-150394295D01*
X98139143Y-150394295D02*
X98186762Y-150299057D01*
X98186762Y-150299057D02*
X98234381Y-150251438D01*
X98234381Y-150251438D02*
X98329619Y-150203819D01*
X98996286Y-150203819D02*
X99615333Y-150203819D01*
X99615333Y-150203819D02*
X99282000Y-150584771D01*
X99282000Y-150584771D02*
X99424857Y-150584771D01*
X99424857Y-150584771D02*
X99520095Y-150632390D01*
X99520095Y-150632390D02*
X99567714Y-150680009D01*
X99567714Y-150680009D02*
X99615333Y-150775247D01*
X99615333Y-150775247D02*
X99615333Y-151013342D01*
X99615333Y-151013342D02*
X99567714Y-151108580D01*
X99567714Y-151108580D02*
X99520095Y-151156200D01*
X99520095Y-151156200D02*
X99424857Y-151203819D01*
X99424857Y-151203819D02*
X99139143Y-151203819D01*
X99139143Y-151203819D02*
X99043905Y-151156200D01*
X99043905Y-151156200D02*
X98996286Y-151108580D01*
X99996286Y-150299057D02*
X100043905Y-150251438D01*
X100043905Y-150251438D02*
X100139143Y-150203819D01*
X100139143Y-150203819D02*
X100377238Y-150203819D01*
X100377238Y-150203819D02*
X100472476Y-150251438D01*
X100472476Y-150251438D02*
X100520095Y-150299057D01*
X100520095Y-150299057D02*
X100567714Y-150394295D01*
X100567714Y-150394295D02*
X100567714Y-150489533D01*
X100567714Y-150489533D02*
X100520095Y-150632390D01*
X100520095Y-150632390D02*
X99948667Y-151203819D01*
X99948667Y-151203819D02*
X100567714Y-151203819D01*
X66635333Y-144853819D02*
X66302000Y-144377628D01*
X66063905Y-144853819D02*
X66063905Y-143853819D01*
X66063905Y-143853819D02*
X66444857Y-143853819D01*
X66444857Y-143853819D02*
X66540095Y-143901438D01*
X66540095Y-143901438D02*
X66587714Y-143949057D01*
X66587714Y-143949057D02*
X66635333Y-144044295D01*
X66635333Y-144044295D02*
X66635333Y-144187152D01*
X66635333Y-144187152D02*
X66587714Y-144282390D01*
X66587714Y-144282390D02*
X66540095Y-144330009D01*
X66540095Y-144330009D02*
X66444857Y-144377628D01*
X66444857Y-144377628D02*
X66063905Y-144377628D01*
X67587714Y-144853819D02*
X67016286Y-144853819D01*
X67302000Y-144853819D02*
X67302000Y-143853819D01*
X67302000Y-143853819D02*
X67206762Y-143996676D01*
X67206762Y-143996676D02*
X67111524Y-144091914D01*
X67111524Y-144091914D02*
X67016286Y-144139533D01*
X58951905Y-135836819D02*
X58951905Y-134836819D01*
X58951905Y-134836819D02*
X59190000Y-134836819D01*
X59190000Y-134836819D02*
X59332857Y-134884438D01*
X59332857Y-134884438D02*
X59428095Y-134979676D01*
X59428095Y-134979676D02*
X59475714Y-135074914D01*
X59475714Y-135074914D02*
X59523333Y-135265390D01*
X59523333Y-135265390D02*
X59523333Y-135408247D01*
X59523333Y-135408247D02*
X59475714Y-135598723D01*
X59475714Y-135598723D02*
X59428095Y-135693961D01*
X59428095Y-135693961D02*
X59332857Y-135789200D01*
X59332857Y-135789200D02*
X59190000Y-135836819D01*
X59190000Y-135836819D02*
X58951905Y-135836819D01*
X60475714Y-135836819D02*
X59904286Y-135836819D01*
X60190000Y-135836819D02*
X60190000Y-134836819D01*
X60190000Y-134836819D02*
X60094762Y-134979676D01*
X60094762Y-134979676D02*
X59999524Y-135074914D01*
X59999524Y-135074914D02*
X59904286Y-135122533D01*
X53644819Y-140337857D02*
X53644819Y-140814047D01*
X53644819Y-140814047D02*
X52644819Y-140814047D01*
X53121009Y-140004523D02*
X53121009Y-139671190D01*
X53644819Y-139528333D02*
X53644819Y-140004523D01*
X53644819Y-140004523D02*
X52644819Y-140004523D01*
X52644819Y-140004523D02*
X52644819Y-139528333D01*
X53644819Y-139099761D02*
X52644819Y-139099761D01*
X52644819Y-139099761D02*
X52644819Y-138861666D01*
X52644819Y-138861666D02*
X52692438Y-138718809D01*
X52692438Y-138718809D02*
X52787676Y-138623571D01*
X52787676Y-138623571D02*
X52882914Y-138575952D01*
X52882914Y-138575952D02*
X53073390Y-138528333D01*
X53073390Y-138528333D02*
X53216247Y-138528333D01*
X53216247Y-138528333D02*
X53406723Y-138575952D01*
X53406723Y-138575952D02*
X53501961Y-138623571D01*
X53501961Y-138623571D02*
X53597200Y-138718809D01*
X53597200Y-138718809D02*
X53644819Y-138861666D01*
X53644819Y-138861666D02*
X53644819Y-139099761D01*
X74231667Y-135807200D02*
X74374524Y-135854819D01*
X74374524Y-135854819D02*
X74612619Y-135854819D01*
X74612619Y-135854819D02*
X74707857Y-135807200D01*
X74707857Y-135807200D02*
X74755476Y-135759580D01*
X74755476Y-135759580D02*
X74803095Y-135664342D01*
X74803095Y-135664342D02*
X74803095Y-135569104D01*
X74803095Y-135569104D02*
X74755476Y-135473866D01*
X74755476Y-135473866D02*
X74707857Y-135426247D01*
X74707857Y-135426247D02*
X74612619Y-135378628D01*
X74612619Y-135378628D02*
X74422143Y-135331009D01*
X74422143Y-135331009D02*
X74326905Y-135283390D01*
X74326905Y-135283390D02*
X74279286Y-135235771D01*
X74279286Y-135235771D02*
X74231667Y-135140533D01*
X74231667Y-135140533D02*
X74231667Y-135045295D01*
X74231667Y-135045295D02*
X74279286Y-134950057D01*
X74279286Y-134950057D02*
X74326905Y-134902438D01*
X74326905Y-134902438D02*
X74422143Y-134854819D01*
X74422143Y-134854819D02*
X74660238Y-134854819D01*
X74660238Y-134854819D02*
X74803095Y-134902438D01*
X75136429Y-134854819D02*
X75374524Y-135854819D01*
X75374524Y-135854819D02*
X75565000Y-135140533D01*
X75565000Y-135140533D02*
X75755476Y-135854819D01*
X75755476Y-135854819D02*
X75993572Y-134854819D01*
X76898333Y-135854819D02*
X76326905Y-135854819D01*
X76612619Y-135854819D02*
X76612619Y-134854819D01*
X76612619Y-134854819D02*
X76517381Y-134997676D01*
X76517381Y-134997676D02*
X76422143Y-135092914D01*
X76422143Y-135092914D02*
X76326905Y-135140533D01*
D12*
%TO.C,BT1*%
X82845000Y-136090000D02*
X86463000Y-136090000D01*
X82845000Y-137800000D02*
X82845000Y-136090000D01*
X82845000Y-141600000D02*
X82845000Y-143310000D01*
X86463000Y-143310000D02*
X82845000Y-143310000D01*
X89307700Y-131590000D02*
X93295000Y-131590000D01*
X95495000Y-133790000D02*
X93295000Y-131590000D01*
X95495000Y-133790000D02*
X98815000Y-133790000D01*
X98815000Y-133790000D02*
X101015000Y-131590000D01*
X101015000Y-131590000D02*
X105002300Y-131590000D01*
X105002300Y-147810000D02*
X89307700Y-147810000D01*
X107847000Y-136090000D02*
X111465000Y-136090000D01*
X111465000Y-137800000D02*
X111465000Y-136090000D01*
X111465000Y-141600000D02*
X111465000Y-143310000D01*
X111465000Y-143310000D02*
X107847000Y-143310000D01*
X86463000Y-136090000D02*
G75*
G02*
X89309629Y-131588211I10692020J-3610012D01*
G01*
X89309629Y-147811789D02*
G75*
G02*
X86463000Y-143310000I7845371J8111789D01*
G01*
X105000371Y-131588211D02*
G75*
G02*
X107847000Y-136090000I-7845366J-8111785D01*
G01*
X107847000Y-143310000D02*
G75*
G02*
X105000372Y-147811790I-10692020J3610010D01*
G01*
%TO.C,R1*%
X67660000Y-137780000D02*
X67660000Y-141620000D01*
X67660000Y-141620000D02*
X69500000Y-141620000D01*
X68580000Y-136830000D02*
X68580000Y-137780000D01*
X68580000Y-142570000D02*
X68580000Y-141620000D01*
X69500000Y-137780000D02*
X67660000Y-137780000D01*
X69500000Y-141620000D02*
X69500000Y-137780000D01*
%TO.C,D1*%
X58695000Y-137135000D02*
X55605000Y-137135000D01*
X57149952Y-142685000D02*
G75*
G02*
X55605170Y-137135000I48J2990000D01*
G01*
X58694830Y-137135000D02*
G75*
G02*
X57150048Y-142685000I-1544830J-2560000D01*
G01*
X59650000Y-139695000D02*
G75*
G02*
X54650000Y-139695000I-2500000J0D01*
G01*
X54650000Y-139695000D02*
G75*
G02*
X59650000Y-139695000I2500000J0D01*
G01*
%TO.C,SW1*%
X72445000Y-140850000D02*
X72445000Y-138650000D01*
X72915000Y-142820000D02*
X78115000Y-142820000D01*
X73515000Y-136580000D02*
X77915000Y-136580000D01*
X78685000Y-138650000D02*
X78685000Y-140850000D01*
X76979214Y-139700000D02*
G75*
G02*
X74150786Y-139700000I-1414214J0D01*
G01*
X74150786Y-139700000D02*
G75*
G02*
X76979214Y-139700000I1414214J0D01*
G01*
%TD*%
M02*
